<svg data-name="icon-spiral" width="100%" height="auto" xmlns="http://www.w3.org/2000/svg" viewBox="0 0 105.96 105.96"><style>.cls-1{fill:none;stroke:#000;stroke-linecap:round;stroke-miterlimit:10;stroke-width:3.5px}</style><path class="cls-1" d="M83.35 92.75c22.48-19.86 22.39-52.41 3.25-71.55-18.49-18.49-47.33-19.81-66.85-.29-17.77 17.77-17.77 45.21-.76 62.22 16.17 16.17 41.7 16.85 57.87.68 15.25-15.25 15.19-39.05.48-53.76s-34.67-14.77-49.44 0c-12.18 12.18-12.18 32.9 0 45.08 12.1 12.1 29.54 10.61 40.63-.48a25.84 25.84 0 0 0 0-36.54c-9.18-9.18-23.73-8.84-32.91.34-8.35 8.35-8.21 21.08.14 29.44 7.36 7.36 18.64 7.17 25.96-.16a15.83 15.83 0 0 0 .03-22.36c-4.83-4.83-13.69-4.51-18.43.23s-4.81 10.98-.72 15.07c3.28 3.28 8.51 3.75 12.28-.02a6.05 6.05 0 0 0 .7-8.2c-1.34-1.57-4.07-2.11-5.76-.44"/></svg>