
<svg xmlns="http://www.w3.org/2000/svg" xmlns:xlink="http://www.w3.org/1999/xlink" version="1.1" id="seedsArtwork" class="artframe " x="0" y="0" width="1440" height="1920" viewBox="0 0 1440 1920" xml:space="preserve" aria-labelledby="seedsTitle seedsDesc" role="img" data-seed="0" tabindex="0">
<title id="seedsTitle">seeds by dxxmsdxy</title>
<desc id="seedsDesc">Interpretable SVG artwork. Code &amp; art by Dreeem. Inscribed 08/15/23</desc>
<style type="text/css">
.artframe *:not(text){-webkit-touch-callout:none;-webkit-tap-highlight-color:transparent;-moz-user-select:-moz-none;-webkit-user-select:none;-ms-user-select:none;user-select:none;transform-origin:50%}
.artframe{overflow:hidden;box-sizing:border-box;background:#efefef;font-family:monospace;font-size:36px;letter-spacing:6px;font-weight:600;container-type:size;transition:background-color 0.8s ease-in-out}
.artframe:focus{outline:none;border:none}

.artframe .bkg{fill:#fff;filter:drop-shadow(3px 5px 10px rgb(0 0 0/.1))}
.artframe .art{clip-path:url(#artClip)}
.artframe .art,.artframe .outline,.artframe .outline-square{fill:#fff;stroke:#000;stroke-width:7.8;stroke-linejoin:round;stroke-linecap:round;stroke-miterlimit:10}
.artframe .outline,.artframe .outline-square{fill:none}
.artframe .square{display:none}
.artframe .hid{opacity:0;stroke:none;fill:#00000000}
.artframe .wrap{transform:translate3d(0,0,0)}
.artframe .art g,.artframe .bkg,.artframe .outline,.artframe text{transition:opacity 0.8s ease-in-out,filter 0.8s ease-in-out,fill 0.8s ease-in-out,stroke 0.8s ease-in-out}
.artframe.js .art > g.lr{opacity:0}
.artframe .lr{display:none}
.artframe .art > g.lr.on{display:block;opacity:1}
.artframe a{text-decoration:none;letter-spacing:2.5px;cursor:pointer}
.artframe #signature{transform:translate(-250px,0px)}
.artframe #signature path{pointer-events:none;cursor:pointer;opacity:0}
.artframe #signature .outline{display:block;stroke-width:6}
.artframe.shift #signature path{pointer-events:auto}
.artframe.shift #signature .outline{opacity:1}
.artframe #char{font-size:120px;stroke:none}

@container(max-aspect-ratio:13.4/18){.artframe .wrap{transform:scale(1);background:#fff}.artframe .bkg{filter:none;transform:scaleX(1)scaleY(2)}}
@container(min-aspect-ratio:13.4/18){.artframe .wrap{transform:scale(1)}.artframe{background:#fff}}
@container(min-aspect-ratio:13.6/18){.artframe .wrap{transform:scale(.89)}.artframe{background:#efefef}}
@container(min-aspect-ratio:16.1/9){
  .artframe .outline{display:none}
  .artframe .outline.square,.artframe .bkg.square{display:block}
  .artframe .art{clip-path:url(#artClipSquare)}
  .artframe #signature{transform:translate(0,0)}
}

@keyframes colorCycle{from{filter:contrast(95%)saturate(95%)hue-rotate(0deg)}to{filter:contrast(95%)saturate(95%)hue-rotate(360deg)}}
@keyframes pulseCycle{from{filter:contrast(108%)saturate(108%)}50%{filter:contrast(92%)saturate(92%)}to{filter:contrast(108%)saturate(108%)}}

/* CREATION */
.artframe.reveal:has(g.on){animation:colorCycle 3.1s linear 0s infinite forwards}
.artframe.reveal:has(g.on) .bkg{fill:#fffbf6}
.artframe.reveal:has(g.on) .art g.on .fx{fill:#bfe3e0;filter:blur(1.25px);animation:pulseCycle 2.55s linear 0s infinite forwards}
.artframe.reveal:has(g.on) .art g.on:nth-of-type(even) .fx{fill:#f3ffdd;animation-duration:3.12s}
.artframe.reveal:has(g.on) .art g.on:nth-child(3n of .on) .fx{fill:#ffeeee;animation-duration:2.86s}
.artframe.reveal:has(g.on) .art g.on:nth-of-type(4n) .fx{fill:#e0edc5;animation-duration:4.25s}
.artframe.reveal:has(g.on) .art g.on,.artframe.reveal:has(g.on) .outline{stroke:#1d3254}
.artframe.reveal:has(g.on) text{fill:#1d3254;filter:blur(1.25px)drop-shadow(1px 2px 5px #ffd2d277)}
.artframe.reveal:has(g.on) #signature path{stroke:#bd9797c9}

/* PROTECTION */
.artframe.protection{background:#2d34ff}
.artframe.protection .bkg,.artframe.protection .art{fill:#2205FF}
.artframe.protection .art,.artframe.protection .outline{stroke:#FFF}
.artframe.protection text{fill:#fff}
.artframe.protection.reveal:has(g.on){background:#9aabee;animation-duration:8s}
.artframe.protection.reveal:has(g.on) .bkg{fill:#a9c7f1}
.artframe.protection.reveal:has(g.on) .art g.on .fx{fill:#87c0fa;filter:blur(1.25px);animation-duration:1.15s}
.artframe.protection.reveal:has(g.on) .art g.on:nth-child(even of .on) .fx{fill:#7382f4;animation-duration:2.37s}
.artframe.protection.reveal:has(g.on) .art g.on:nth-child(3n of .on) .fx{fill:#d5e6fa;animation-duration:3.23s}
.artframe.protection.reveal:has(g.on) .art g.on:nth-child(4n of .on) .fx{fill:#86a9f1;animation-duration:1.59s}
.artframe.protection.reveal:has(g.on) .art g.on,.artframe.protection.reveal:has(g.on) .outline{stroke:#1e0caa}
.artframe.protection.reveal:has(g.on) text{fill:#1e0caa;filter:blur(1.25px)drop-shadow(1px 2px 5px #b4caefaa)}
.artframe.protection.reveal:has(g.on) #signature path{stroke:#1e0caac9;filter:drop-shadow(1px 3px 5px #c2d0ebc9)}

/* DESTRUCTION */
.artframe.destruction{background:#440e16}
.artframe.destruction .bkg,.artframe.destruction .art{fill:#ff0040}
.artframe.destruction .art,.artframe.destruction .outline{stroke:#000}
.artframe.destruction text{fill:#000}
.artframe.destruction.reveal:has(g.on){background:#3e181d;animation-duration:5s}
.artframe.destruction.reveal:has(g.on) .bkg{fill:#f43778}
.artframe.destruction.reveal:has(g.on) .art g.on .fx{fill:#ffa1d7;filter:blur(1.25px);animation-duration:1.15s}
.artframe.destruction.reveal:has(g.on) .art g.on:nth-child(even of .on) .fx{fill:#ff0040;animation-duration:0.89s}
.artframe.destruction.reveal:has(g.on) .art g.on:nth-child(3n of .on) .fx{fill:#3d1b38;animation-duration:2.15s}
.artframe.destruction.reveal:has(g.on) .art g.on:nth-child(4n of .on) .fx{fill:#7b1c34;animation-duration:1.81s}
.artframe.destruction.reveal:has(g.on) .art g.on,.artframe.destruction.reveal:has(g.on) .outline{stroke:#c51155}
.artframe.destruction.reveal:has(g.on) text{fill:#331519;filter:blur(1.25px)drop-shadow(1px 2px 5px #ff7bc777)}
.artframe.destruction.reveal:has(g.on) #signature path{stroke:#ff7bc7c9;filter:drop-shadow(1px 3px 5px #3d1b38c9)}

/* PERCEPTION */
.artframe.perception{background:#16332a}
.artframe.perception .bkg,.artframe.perception .art{fill:#14563b}
.artframe.perception .art,.artframe.perception .outline{stroke:#fff}
.artframe.perception text{fill:#fff}
.artframe.perception.reveal:has(g.on){background:#191c1b;animation-duration:2.5s}
.artframe.perception.reveal:has(g.on) .bkg{fill:#0e100f}
.artframe.perception.reveal:has(g.on) .art g.on .fx{fill:#13250e;filter:blur(1.25px);animation-duration:2.51s}
.artframe.perception.reveal:has(g.on) .art g.on:nth-child(even of .on) .fx{fill:#0c8556;animation-duration:2.94s}
.artframe.perception.reveal:has(g.on) .art g.on:nth-child(3n of .on) .fx{fill:#174b28;animation-duration:5.83s}
.artframe.perception.reveal:has(g.on) .art g.on:nth-child(4n of .on) .fx{fill:#04ff64;animation-duration:2.15s}
.artframe.perception.reveal:has(g.on) .art g.on,.artframe.perception.reveal:has(g.on) .outline{stroke:#15ad42}
.artframe.perception.reveal:has(g.on) text{fill:#2fff04;filter:blur(1.25px)drop-shadow(1px 2px 5px #00c37777)}
.artframe.perception.reveal:has(g.on) #signature path{stroke:#2fff04c9;filter:drop-shadow(1px 3px 5px #0e100fc9)}

/* ETERNITY */
.artframe.eternity{background:#0d0d0d}
.artframe.eternity .bkg,.artframe.eternity .art{fill:#000}
.artframe.eternity .art,.artframe.eternity .outline{stroke:#fff}
.artframe.eternity text{fill:#fff}
.artframe.eternity.reveal:has(g.on){background:#060607;animation-duration:22s}
.artframe.eternity.reveal:has(g.on) .bkg{fill:#0a0a0b}
.artframe.eternity.reveal:has(g.on) .art g.on .fx{fill:#191321;filter:blur(1.25px);animation-duration:9.33s}
.artframe.eternity.reveal:has(g.on) .art g.on:nth-child(even of .on) .fx{fill:#140a26;animation-duration:14.91s}
.artframe.eternity.reveal:has(g.on) .art g.on:nth-child(3n of .on) .fx{fill:#000000;animation-duration:11.8s}
.artframe.eternity.reveal:has(g.on) .art g.on:nth-child(4n of .on) .fx{fill:#090812;animation-duration:10.8s}
.artframe.eternity.reveal:has(g.on) .art g.on,.artframe.eternity.reveal:has(g.on) .outline{stroke:#482ec5}
.artframe.eternity.reveal:has(g.on) text{fill:#3f2aa6;filter:blur(1.25px)drop-shadow(1px 2px 5px #11111277)}
.artframe.eternity.reveal:has(g.on) #signature path{stroke:#3f2aa6c9;filter:drop-shadow(1px 3px 5px #0a0a0b)}

.artframe:active .art g.on{animation:preRotate 2.2s ease-in-out forwards}
@keyframes preRotate{from{transform:rotate(0deg)}80%{transform:rotate(-4deg)}to{transform:rotate(0deg)}}

@keyframes rotateClockwise{from{transform:rotate(0deg)}to{transform:rotate(360deg)}}
@keyframes rotateCounter{from{transform:rotate(360deg)}to{transform:rotate(0deg)}}
.artframe.spin .art g.on{animation:rotateClockwise 300s linear infinite}
.artframe.spin .art g.on:nth-of-type(odd){animation:rotateClockwise 300s linear infinite}
.artframe.spin .art g.on:nth-of-type(even){animation:rotateCounter 300s linear infinite}
.artframe.spin .art g.on:nth-of-type(3n){animation:rotateCounter 150s linear infinite}
.artframe.spin .art g.on:nth-of-type(3n-1){animation:rotateCounter 400s linear infinite}
.artframe.spin .art g.on:nth-of-type(4n){animation:rotateClockwise 150s linear infinite}
.artframe.spin .art g.on:nth-of-type(4n+1){animation:rotateClockwise 200s linear infinite}
.artframe.spin .art g.on:nth-of-type(5n){animation:rotateClockwise 120s linear infinite}
.artframe.spin .art g.on:nth-of-type(5n+6){animation:rotateClockwise 240s linear infinite}
.artframe.spin .art g.on:nth-of-type(6n+1){animation:rotateCounter 240s linear infinite}
.artframe.spin .art g.on:nth-of-type(7n){animation:rotateCounter 200s linear infinite}
.artframe.spin .art g.on:nth-of-type(8n+1){animation:rotateClockwise 100s linear infinite}
.artframe.spin .art g.on:nth-of-type(8n-3){animation:rotateClockwise 120s linear infinite}
.artframe.spin .art g.on:nth-of-type(9n){animation:rotateCounter 100s linear infinite}
.artframe.spin .art g.on:nth-of-type(10n){animation:rotateClockwise 150s linear infinite}
.artframe.spin .art g.on:nth-of-type(10n+1){animation:rotateCounter 240s linear infinite}
.artframe.spin .art g.on:nth-of-type(11n){animation:rotateClockwise 120s linear infinite}
.artframe.spin .art g.on:nth-of-type(12n){animation:rotateClockwise 240s linear infinite}
.artframe.spin .art g.on:nth-of-type(12n-5){animation:rotateCounter 100s linear infinite}
.artframe.spin .art g.on:nth-of-type(13n){animation:rotateCounter 120s linear infinite}
.artframe.spin .art g.on:nth-of-type(14n){animation:rotateClockwise 200s linear infinite}
.artframe.spin .art g.on:nth-of-type(18n-3){animation:rotateClockwise 100s linear infinite}
.artframe.spin .art g.on:nth-of-type(19n){animation:rotateClockwise 75s linear infinite}
.artframe.spin .art g.on:nth-of-type(20n){animation:rotateClockwise 400s linear infinite}
.artframe.spin .art g.on:nth-of-type(10n+19){animation:rotateClockwise 600s linear infinite}
.artframe.spin .art g.on:nth-of-type(10n-3){animation:rotateCounter 200s linear infinite}

@keyframes float1{from{transform:translate(0,0)rotate(0deg)}30%{transform:translate(5px,6px)rotate(-0.3deg)}50%{transform:translate(0,-5px)rotate(0.1deg)}70%{transform:translate(8px,0px)rotate(0.2deg)}to{transform:translate(0,0)rotate(0deg)}}
@keyframes float2{from{transform:translate(0,0)rotate(0deg)}20%{transform:translate(-3px,7px)rotate(0.2deg)}45%{transform:translate(0,4px)rotate(-0.1deg)}75%{transform:translate(5px,0px)rotate(-0.2deg)}to{transform:translate(0,0)rotate(0deg)}}
.artframe.float .art g.on{animation:float1 300s ease-in-out infinite}

.artframe.float .art > g:nth-of-type(odd){animation-duration:60s}
.artframe.float .art > g:nth-of-type(even){animation-duration:60s}
.artframe.float .art > g:nth-of-type(3n){animation-duration:30s}
.artframe.float .art > g:nth-of-type(3n-1){animation-duration:60s;animation-name:float2}
.artframe.float .art > g:nth-of-type(4n){animation-duration:30s}
.artframe.float .art > g:nth-of-type(4n+1){animation-duration:40s}
.artframe.float .art > g:nth-of-type(5n){animation-duration:24s}
.artframe.float .art > g:nth-of-type(5n+6){animation-duration:30s;animation-name:float2}
.artframe.float .art > g:nth-of-type(6n+1){animation-duration:30s}
.artframe.float .art > g:nth-of-type(7n){animation-duration:20s}
.artframe.float .art > g:nth-of-type(9n){animation-duration:20s;animation-name:float2}
.artframe.float .art > g:nth-of-type(10n){animation-duration:30s}
.artframe.float .art > g:nth-of-type(10n+1){animation-duration:40s}
.artframe.float .art > g:nth-of-type(11n){animation-duration:15s;animation-name:float2}
.artframe.float .art > g:nth-of-type(12n){animation-duration:40s}
.artframe.float .art > g:nth-of-type(13n){animation-duration:20s}
.artframe.float .art > g:nth-of-type(14n){animation-duration:20s}
.artframe.float .art > g:nth-of-type(19n){animation-duration:15s;animation-name:float2}
.artframe.float .art > g:nth-of-type(20n){animation-duration:24s}
.artframe.float .art > g:nth-of-type(10n+19){animation-duration:60s}

</style>
<g class="wrap">
  <path class="bkg" d="M.53 0h1440v1920H.53z"/>
  <path class="bkg square" d="M-240 0h1920v1920H-240z"/>
  <g class="art">
    <defs><path id="artMask" d="M70.6 70h1300V1850H70.6V70z"/><path id="artMaskSquare" d="M1609.9 1849.9V70.1H-169.9V1850l1779.8-.1z"/></defs><clipPath id="artClip"><use xlink:href="#artMask" style="overflow:visible"/></clipPath>
    <clipPath id="artClipSquare"><use xlink:href="#artMaskSquare" style="overflow:visible"/></clipPath>
    <g id="horizontal-lines" class="lr"><g class="fx">
      <path d="M2034.1 1036.1H-594.1v53.5h2628.3l-.1-53.5h0z"/>
      <path d="M2034.1 933.4H-594.1v53.5h2628.3l-.1-53.5h0z"/>
      <path d="M2034.1 1138.8H-594.1v53.5h2628.3l-.1-53.5h0z"/>
      <path d="M2034.1 1241.6H-594.1v53.5h2628.3l-.1-53.5h0z"/>
      <path d="M2034.1 1447H-594.1v53.5h2628.3l-.1-53.5h0z"/>
      <path d="M2034.1 1344.3H-594.1v53.5h2628.3l-.1-53.5h0z"/>
      <path d="M2034.1 1549.7H-594.1v53.5h2628.3l-.1-53.5h0z"/>
      <path d="M2034.1 1652.5H-594.1v53.5h2628.3l-.1-53.5h0z"/>
      <path d="M2034.1 1857.9H-594.1v53.5h2628.3l-.1-53.5h0z"/>
      <path d="M2034.1 1755.2H-594.1v53.5h2628.3l-.1-53.5h0z"/>
      <path d="M2034.1 1960.7H-594.1v53.5h2628.3l-.1-53.5h0z"/>
      <path d="M2034.1 2063.4H-594.1v53.5h2628.3l-.1-53.5h0z"/>
      <path d="M2034.1 2166.1H-594.1v53.5h2628.3l-.1-53.5h0z"/>
      <path d="M2034.1 2268.8H-594.1v53.5h2628.3l-.1-53.5h0z"/>
      <path d="M2034.1-402.1H-594.1v53.5h2628.3l-.1-53.5h0z"/>
      <path d="M2034.1-196.7H-594.1v53.5h2628.3l-.1-53.5h0z"/>
      <path d="M2034.1-299.4H-594.1v53.5h2628.3l-.1-53.5h0z"/>
      <path d="M2034.1-93.9H-594.1v53.5h2628.3l-.1-53.5h0z"/>
      <path d="M2034.1 8.8H-594.1v53.5h2628.3l-.1-53.5h0z"/>
      <path d="M2034.1 214.3H-594.1v53.5h2628.3l-.1-53.5h0z"/>
      <path d="M2034.1 111.5H-594.1V165h2628.3l-.1-53.5h0z"/>
      <path d="M2034.1 317H-594.1v53.5h2628.3l-.1-53.5h0z"/>
      <path d="M2034.1 419.7H-594.1v53.5h2628.3l-.1-53.5h0z"/>
      <path d="M2034.1 522.4H-594.1v53.5h2628.3l-.1-53.5h0z"/>
      <path d="M2034.1 727.9H-594.1v53.5h2628.3l-.1-53.5h0z"/>
      <path d="M2034.1 625.2H-594.1v53.5h2628.3l-.1-53.5h0z"/>
      <path d="M2034.1 830.6H-594.1v53.5h2628.3l-.1-53.5h0z"/>
    </g></g>
    <g id="vertical-lines" class="lr"><g class="fx">
      <path d="M760.6-373.3h-81.2v2666.7h81.2V-373.3z"/>
      <path d="M-486.8-373.3H-568v2666.7h81.2V-373.3z"/>
      <path d="M-330.9-373.3h-81.2v2666.7h81.2V-373.3z"/>
      <path d="M-174.9-373.3h-81.2v2666.7h81.2V-373.3z"/>
      <path d="M-19-373.3h-81.2v2666.7H-19V-373.3z"/>
      <path d="M136.9-373.3H55.7v2666.7h81.2V-373.3z"/>
      <path d="M292.8-373.3h-81.2v2666.7h81.2V-373.3z"/>
      <path d="M448.8-373.3h-81.2v2666.7h81.2V-373.3z"/>
      <path d="M604.7-373.3h-81.2v2666.7h81.2V-373.3z"/>
      <path d="M916.5-373.3h-81.2v2666.7h81.2V-373.3z"/>
      <path d="M1072.5-373.3h-81.2v2666.7h81.2V-373.3z"/>
      <path d="M1228.4-373.3h-81.2v2666.7h81.2V-373.3z"/>
      <path d="M1384.3-373.3h-81.2v2666.7h81.2V-373.3z"/>
      <path d="M1540.2-373.3H1459v2666.7h81.2V-373.3z"/>
      <path d="M1696.1-373.3h-81.2v2666.7h81.2V-373.3z"/>
      <path d="M1852.1-373.3h-81.2v2666.7h81.2V-373.3z"/>
      <path d="M2008-373.3h-81.2v2666.7h81.2V-373.3z"/>
    </g></g>
    <g id="outer-rings" class="lr"><g class="fx">
        <path d="M720-149.2C108.4-149.2-389.2 348.4-389.2 960S108.3 2069.3 720 2069.3s1109.2-497.6 1109.2-1109.2S1331.6-149.2 720-149.2zm0 2163.6c-581.3 0-1054.3-473-1054.3-1054.3S138.6-94.3 720-94.3 1774.3 378.7 1774.3 960 1301.3 2014.4 720 2014.4z"/>
        <path d="M720-40.7C168.2-40.7-280.8 408.2-280.8 960.1S168.2 1960.8 720 1960.8 1720.8 1511.9 1720.8 960 1271.8-40.7 720-40.7zm0 1948c-522.3 0-947.2-424.9-947.2-947.2S197.7 12.8 720 12.8s947.2 424.9 947.2 947.2-424.9 947.3-947.2 947.3z"/>
        <path d="M720 67.3c-492.3 0-892.8 400.5-892.8 892.8s400.5 892.8 892.8 892.8 892.8-400.5 892.8-892.8S1212.3 67.3 720 67.3zm0 1731c-462.2 0-838.2-376-838.2-838.2s376-838.2 838.2-838.2 838.3 376.1 838.3 838.2-376.1 838.2-838.3 838.2z"/>
        <path d="M720 176.6C288 176.6-63.4 528-63.4 960S288 1743.5 720 1743.5s783.5-351.4 783.5-783.4S1152 176.6 720 176.6zm0 1510.9c-401.1 0-727.4-326.3-727.4-727.4S318.9 232.6 720 232.6s727.4 326.3 727.4 727.4-326.3 727.5-727.4 727.5z"/>
        <path d="M1193.6 486.4c-261.6-261.6-685.7-261.6-947.3 0s-261.6 685.7 0 947.3 685.7 261.6 947.3 0 261.6-685.7 0-947.3zM720 1572.3c-337.6 0-612.3-274.6-612.3-612.3S382.4 347.8 720 347.8s612.3 274.6 612.3 612.3-274.7 612.2-612.3 612.2z"/>
        <path d="M1112.2 567.8c-216.6-216.6-567.8-216.6-784.4 0s-216.6 567.8 0 784.4 567.8 216.6 784.4 0 216.6-567.7 0-784.4zM720 1457.1c-274.1 0-497.1-223-497.1-497.1s223-497 497.1-497 497.1 223 497.1 497.1-223 497-497.1 497z"/>
        <path d="M1030.8 649.3c-171.6-171.6-449.9-171.6-621.6 0-171.6 171.6-171.6 449.9 0 621.6 171.6 171.6 449.9 171.6 621.6 0s171.6-450 0-621.6zm-40.7 580.8c-149.2 149.2-391 149.2-540.1 0-149.1-149.1-149.1-391 0-540.1 149.2-149.2 391-149.2 540.1 0 149.1 149.1 149.1 391 0 540.1z"/>
        <path d="M720 635.9c-178.7 0-324.1 145.5-324.1 324.1s145.4 324.1 324.1 324.1 324.1-145.4 324.1-324.1S898.8 635.9 720 635.9zm0 590.5c-146.9 0-266.3-119.5-266.3-266.3S573.2 693.7 720 693.7 986.3 813.1 986.3 960 866.9 1226.4 720 1226.4z"/>
        <path d="M720 749.3c-116.2 0-210.7 94.6-210.7 210.7s94.5 210.7 210.7 210.7 210.7-94.5 210.7-210.7S836.2 749.3 720 749.3zm0 364.5c-84.8 0-153.7-69-153.7-153.7s69-153.8 153.7-153.8S873.7 875.2 873.7 960s-68.9 153.8-153.7 153.8z"/>
        <path d="M720 861c-54.6 0-99 44.5-99 99s44.4 99 99 99 99-44.4 99-99-44.4-99-99-99zm0 143.8c-24.7 0-44.7-20.1-44.7-44.7s20.1-44.8 44.7-44.8 44.7 20.1 44.7 44.7c0 24.7-20 44.8-44.7 44.8z"/>
        <path d="M720-252.7C51.3-252.7-492.7 291.3-492.7 960S51.2 2172.8 720 2172.8s1212.7-544.1 1212.7-1212.7S1388.7-252.7 720-252.7zm0 2373.6c-640 0-1160.8-520.8-1160.8-1160.8S79.9-200.8 720-200.8 1880.8 320 1880.8 960 1360 2120.9 720 2120.9z"/>
    </g></g>
    <g id="diagonal-lines-1" class="lr"><g class="fx">
        <path d="M-1208 936.5 696.5-968l88.2 88.2-1904.5 1904.5-88.2-88.2zm169.4 169.4L865.9-798.6l88.2 88.2-1904.5 1904.5-88.2-88.2zm169.4 169.4L1035.3-629.2l88.2 88.2L-781 1363.5l-88.2-88.2zm169.4 169.4L1204.7-459.8l88.2 88.2-1904.5 1904.5-88.2-88.2zm169.4 169.4L1374.1-290.4l88.2 88.2-1904.5 1904.5-88.2-88.2zm169.4 169.3L1543.4-121l88.2 88.2-1904.4 1904.5-88.2-88.3zm169.3 169.4L1712.8 48.3l88.2 88.2L-103.4 2041l-88.3-88.2zm169.4 169.4L1882.2 217.7l88.2 88.2L65.9 2210.4l-88.2-88.2zm169.4 169.4L2051.6 387.1l88.2 88.2L235.3 2379.8l-88.2-88.2zM316.5 2461 2221 556.5l88.2 88.2L404.7 2549.2l-88.2-88.2zm169.4 169.3L2390.3 725.9l88.2 88.2L574.1 2718.6l-88.2-88.3zM743.5 2888l-88.2-88.2L2559.7 895.3l88.2 88.2L743.5 2888z"/>
    </g></g>
    <g id="diagonal-lines-2" class="lr"><g class="fx">
        <path d="M696.5 2888-1208 983.5l88.2-88.2L784.7 2799.7l-88.2 88.3zm169.4-169.4L-1038.6 814.1l88.2-88.2L954.1 2630.3l-88.2 88.3zm169.4-169.4L-869.2 644.7l88.2-88.2L1123.5 2461l-88.2 88.2zm169.4-169.4L-699.8 475.3l88.2-88.2 1904.5 1904.5-88.2 88.2zm169.4-169.4L-530.4 305.9l88.2-88.2 1904.5 1904.5-88.2 88.2zm169.3-169.4L-361 136.6l88.2-88.2 1904.5 1904.5-88.3 88.1zm169.4-169.3L-191.7-32.8l88.2-88.2L1801 1783.4l-88.2 88.3zm169.4-169.4L-22.3-202.2l88.2-88.2 1904.5 1904.5-88.2 88.2zm169.4-169.4L147.1-371.6l88.2-88.2 1904.5 1904.5-88.2 88.2zm169.4-169.4L316.5-541l88.2-88.2 1904.5 1904.5-88.2 88.2zm169.4-169.4L485.9-710.4l88.2-88.2 1904.5 1904.5-88.2 88.2zm169.3-169.4L655.3-879.7l88.2-88.2L2648 936.5l-88.3 88.2z"/>
    </g></g>
    <g id="pinwheel" class="lr"><g class="fx">
        <path d="M720 960c0-420.5-420.9-776.3-1001.2-895.8-240.7 268.1-359.7 618.9-340.4 970.4l.1-.1C-126.6 708.7 422.7 662.7 720 960z"/>
        <path d="M733.5 959.8c55.8-1.2 110.4-9.8 163.4-25.2-9.5 2.7-18.9 5.1-28.1 7.2 99.6-24.2 194.3-71.8 279.7-139.2 249.3-198.3 397.9-512.7 467.3-843.9C1367.7-272.7 1000.1-399 645.2-382h-.1l.4.6C971.3 113.4 1017.3 662.7 720 960c6.9 0 13.7-.2 20.6-.4-2.4.1-4.8.2-7.1.2z"/>
        <path d="M2061.4 885.5c-297.4 193.2-631 309.7-957.9 262-143.3-22.1-280.8-84-383.5-187.5 7.5 7.5 15.3 14.9 23.1 22-7.9-7.1-15.6-14.4-23.1-22-420.5 0-776.3 420.9-895.8 1001.2 267.9 240.6 618.7 359.8 970.4 340.4l-.1-.1C468.7 1806.6 422.7 1257.3 720 960c0 420.5 420.9 776.3 1001.2 895.8l.1-.1c236.9-264 360.3-613.6 340.1-970.2z"/>
    </g></g>
    <g id="vertical-bands" class="lr"><g class="fx">
      <path id="Vector_9_15_" d="M448.8-373.3H211.6v2666.7h237.1V-373.3z"/>
      <path id="Vector_9_14_" d="M1228.4-373.3H991.2v2666.7h237.1V-373.3z"/>
      <path id="Vector_9_13_" d="M1614.9-373.3h-230.6v2666.7h230.6V-373.3z"/>
      <path id="Vector_9_12_" d="M2001.5-373.3h-230.6v2666.7h230.6V-373.3z"/>
      <path id="Vector_9_11_" d="M-330.9-373.3h-230.6v2666.7h230.6V-373.3z"/>
      <path id="Vector_9_10_" d="M55.7-373.3h-230.6v2666.7H55.7V-373.3z"/>
      <path id="Vector_11_7_" d="M835.3-373.3H604.7v2666.7h230.6V-373.3z"/>
    </g></g>
    <g id="horizontal-bands" class="lr"><g class="fx">
      <path d="M2034.1 984.7H-594.1v156.2h2628.3l-.1-156.2h0z"/>
      <path d="M2034.1 1190.1H-594.1v156.2h2628.3l-.1-156.2h0z"/>
      <path d="M2034.1 1395.6H-594.1v156.2h2628.3l-.1-156.2h0z"/>
      <path d="M2034.1 1601.1H-594.1v156.2h2628.3l-.1-156.2h0z"/>
      <path d="M2034.1 1806.5H-594.1v156.2h2628.3l-.1-156.2h0z"/>
      <path d="M2034.1 2012H-594.1v156.2h2628.3l-.1-156.2h0z"/>
      <path d="M2034.1 2217.4H-594.1v156.2h2628.3l-.1-156.2h0z"/>
      <path d="M2034.1-453.5H-594.1v156.2h2628.3l-.1-156.2h0z"/>
      <path d="M2034.1-42.6H-594.1v156.2h2628.3l-.1-156.2h0z"/>
      <path d="M2034.1-250.5H-594.1v156.2h2628.3l-.1-156.2h0z"/>
      <path d="M2034.1 162.8H-594.1V319h2628.3l-.1-156.2h0z"/>
      <path d="M2034.1 368.3H-594.1v156.2h2628.3l-.1-156.2h0z"/>
      <path d="M2034.1 573.8H-594.1V730h2628.3l-.1-156.2h0z"/>
      <path d="M2034.1 779.2H-594.1v156.2h2628.3l-.1-156.2h0z"/>
    </g></g>
    <g id="radiant-light-back" class="lr"><g class="fx">
        <path d="m-639.5 1371.1 106.4 257.3L720 960l-1359.5 411.1z"/>
        <path d="M720 960"/>
        <path d="M720 960 49.4 2212l257.2 106.8L720 960z"/>
        <path d="M720 960 579.5 2373.3l278.4.2L720 960z"/>
        <path d="M720 960"/>
        <path d="M720 960"/>
        <path d="m-378.7 1860 196.7 197L720 960l-1098.7 900z"/>
        <path d="m-693.3 819.5-.2 278.4L720 960-693.3 819.5z"/>
        <path d="m-532 289.4-106.8 257.2L720 960-532 289.4z"/>
        <path d="M-180-138.7-377.1 58 720 960-180-138.7z"/>
        <path d="M308.9-399.5 51.6-293.1 720 960 308.9-399.5z"/>
        <path d="M582.1-453.5 720 960 860.5-453.3l-278.4-.2z"/>
        <path d="m2079.5 1371.1-106.3 257.3L720 960l1359.5 411.1z"/>
        <path d="M720 960"/>
        <path d="m720 960 670.6 1252-257.2 106.8L720 960z"/>
        <path d="M720 960"/>
        <path d="M720 960"/>
        <path d="M720 960"/>
        <path d="M1818.7 1860 1622 2057.1 720 960l1098.7 900z"/>
        <path d="M720 960"/>
        <path d="m2133.3 819.5.2 278.4L720 960l1413.3-140.5z"/>
        <path d="m1972 289.4 106.8 257.2L720 960l1252-670.6z"/>
        <path d="M1620-138.7 1817.1 58 720 960l900-1098.7z"/>
        <path d="m1131.1-399.5 257.3 106.4L720 960l411.1-1359.5z"/>
        <path d="M720 960"/>
        <path d="M720 960"/>
    </g></g>
    <g id="thick-band" class="lr"><g class="fx">
      <path d="M1909.5 569.9h-2379v780.3h2378.9V569.9z"/>
    </g></g>
    <g id="bubble-wrap" class="lr"><g class="fx">
        <path d="M-426.3 718.3C110.1 782.8 492.5 1270 428 1806.4c-18.8 155.8-73.2 298.6-154 421.2-522.7-183.9-897.4-682-897.4-1267.6 0-84.5 7.8-167.1 22.7-247.2 57.2-3.3 115.5-1.6 174.4 5.5z"/>
        <path d="M720 2303.4c-333.9 0-639.4-121.8-874.4-323.5a986.42 986.42 0 0 1 91.8-148.1C261.6 1399.6 874.8 1312 1307 1636.1c125.4 94 221.8 212.4 287.6 343.7-235 201.7-540.6 323.6-874.6 323.6z"/>
        <path d="M1599 789.7c144.2-61.6 295-85.9 441.6-77.2 14.9 80.2 22.8 162.9 22.8 247.5 0 585.5-374.5 1083.5-897.1 1267.5a979.86 979.86 0 0 1-82.5-153.9C871.5 1576.8 1102.2 1002 1599 789.7z"/>
        <path d="M2063.4 960c0 84.5-7.8 167.1-22.7 247.2-57.2 3.3-115.5 1.6-174.4-5.5C1329.9 1137.2 947.5 650 1012 113.6c18.8-155.8 73.2-298.6 154-421.2 522.8 183.9 897.4 682 897.4 1267.6z"/>
        <path d="M720-383.4c333.9 0 639.4 121.8 874.4 323.5a986.42 986.42 0 0 1-91.8 148.1C1178.4 520.4 565.2 608 133 283.9 7.6 189.8-88.8 71.4-154.6-59.8 80.4-261.5 386-383.4 720-383.4z"/>
        <path d="M273.7-307.5c31.5 47.9 59.2 99.3 82.5 153.9 169.2 396.1 56.9 841.8-247.4 1113.8-144.3-129.2-328.2-217-535.1-241.9-58.9-7.1-117.2-8.8-174.4-5.5 88.4-475.4 427.2-862.9 874.4-1020.3z"/>
    </g></g>
    <g id="vertical-seal" class="lr"><g class="fx">
        <path d="M611 2276v-866.8h33.5V2276H794v-866.8h33.5V2276h145V-356h-144v866.8H795V-356H644.5v866.8H611V-356H467.4v2631.9l143.6.1z"/>
        <path d="M585.9 2283.6v-899h83.7v899H769v-899h83.6v899h94.9V-363.6h-93.9v899H770v-899H669.6v899h-83.7v-899h-93.4v2647.2h93.4z"/>
    </g></g>
    <g id="outer-hexagon" class="lr"><g class="fx">
        <path d="M720-860.6-1100.6 960 720 2780.6 2540.6 960 720-860.6zm663.5 2203.8L720 1726.3 56.5 1343.2V577L720 193.9 1383.5 577v766.2z"/>
    </g></g>
    <g id="outer-circle" class="lr"><g class="fx">
        <path d="M720-860.6-1100.6 960 720 2780.6 2540.6 960 720-860.6zm0 2544.6C320.2 1684-4 1359.8-4 960s324.2-724 724-724 724 324.2 724 724-324.2 724-724 724z"/>
    </g></g>
    <g id="outer-ellispes" class="lr"><g class="fx">
        <path d="M64.6 960c0 501.1-131.6 907.4-294 907.4s-294-406.2-294-907.4 131.6-907.4 294-907.4 294 406.3 294 907.4z"/>
        <path d="M1375.4 960c0-501.1 131.6-907.4 294-907.4s294 406.2 294 907.4c0 501.1-131.6 907.4-294 907.4s-294-406.3-294-907.4z"/>
        <path d="M392.3 392.4C-41.7 643-459.3 732.1-540.5 591.5s204.8-457.7 638.8-708.3 851.6-339.7 932.8-199.1c81.2 140.7-204.8 457.8-638.8 708.3z"/>
        <path d="M1047.7 1527.6c434-250.6 851.6-339.7 932.8-199.1s-204.8 457.7-638.8 708.3-851.6 339.7-932.8 199.1c-81.2-140.7 204.8-457.8 638.8-708.3z"/>
        <path d="M1047.7 392.4c-434-250.6-720-567.7-638.8-708.3s498.8-51.5 932.8 199.1 720 567.7 638.8 708.3-498.8 51.5-932.8-199.1z"/>
        <path d="M392.3 1527.6c434 250.6 720 567.7 638.8 708.3-81.2 140.6-498.8 51.5-932.8-199.1s-720-567.7-638.8-708.3 498.8-51.5 932.8 199.1z"/>
    </g></g>
    <g id="outer-wave" class="lr"><g class="fx">
      <path d="M720-330.6C7.2-330.6-570.7 247.2-570.7 960S7.2 2250.7 720 2250.7 2010.7 1672.9 2010.7 960 1432.8-330.6 720-330.6zm721.3 1484c-17.5 65.3-10.6 140.7-43.7 197.9-33.6 58-102.6 89.6-149.6 136.7-47.1 47.1-78.7 116.1-136.7 149.6-57.2 33.1-132.6 26.2-197.9 43.7-63.1 16.8-124.8 61-193.3 61s-130.2-44.1-193.3-61c-65.3-17.5-140.7-10.6-197.9-43.7-58-33.6-89.6-102.6-136.7-149.6-47.1-47.1-116.1-78.7-149.6-136.7-33.1-57.2-26.2-132.6-43.7-197.9-16.8-63.1-61-124.8-61-193.3s44.1-130.2 61-193.3c17.3-65.3 10.5-140.8 43.5-198C76 510.8 145 479.2 192 432.1 239.1 385 270.7 316 328.7 282.5c57.2-33.1 132.6-26.2 197.9-43.7 63.1-16.8 124.8-61 193.3-61s130.2 44.1 193.3 61c65.3 17.5 140.7 10.6 197.9 43.7 58 33.6 89.6 102.6 136.7 149.6 47.1 47.1 116.1 78.7 149.6 136.7 33.1 57.2 26.2 132.6 43.7 197.9 16.8 63.1 61 124.8 61 193.3.1 68.5-44 130.2-60.8 193.4z"/>
    </g></g>
    <g id="outer-rough-circle" class="lr"><g class="fx">
      <path d="M720-309.7C18.8-309.7-549.7 258.8-549.7 960S18.8 2229.7 720 2229.7 1989.7 1661.2 1989.7 960 1421.2-309.7 720-309.7zm810.2 1442-53.6 73.6.1 91.1-67.8 60.8-18.9 89.1-79 45.4-36.9 83.3-86.7 28.1-53.4 73.8-90.6 9.4-67.6 61.1-90.6-9.7-78.9 45.6-86.6-28.4-86.6 28.4-78.9-45.6-90.6 9.7-67.6-61.1-90.6-9.4-53.4-73.8-86.7-28.1-36.9-83.3-79-45.4-18.9-89.1-67.8-60.8.1-91.1-53.6-73.6 19.2-89-37.1-83.2 37.1-83.2-19.2-89 53.6-73.6-.1-91.1 67.8-60.8L50 473.2l79-45.4 36.9-83.3 86.7-28.1 53.4-73.8 90.6-9.4 67.6-61.1 90.6 9.7 78.9-45.6 86.6 28.4 86.6-28.4 78.9 45.6 90.6-9.7 67.6 61.1 90.6 9.4 53.4 73.8 86.7 28.1 36.9 83.3 79 45.4 18.9 89.1 67.8 60.8-.1 91.1 53.6 73.6-19.2 89 37.1 83.2-37.1 83.2 18.6 89.1z"/>
    </g></g>
    <g id="outer-blob" class="lr"><g class="fx">
        <path d="M-236.6 22.6C10.7-174.7 535-193.7 606.9-43.9c74.6 155.5-220.8 162.3-415 360.7C61.8 449.6-32.6 610.3-326.3 660.6c-320.5 54.7-194.3-411.4 89.7-638z"/>
        <path d="M1676.6 22.6C1429.3-174.7 905-193.7 833.1-43.9c-74.6 155.5 220.8 162.3 415 360.7 130.1 132.9 224.5 293.5 518.3 343.8 320.4 54.7 194.2-411.4-89.8-638z"/>
        <path d="M1676.6 1897.4c-247.3 197.4-771.6 216.2-843.4 66.6-74.6-155.5 220.8-162.3 415-360.7 130.1-132.9 224.5-293.5 518.3-343.8 320.3-54.7 194.1 411.3-89.9 637.9z"/>
        <path d="M-236.6 1897.4C10.7 2094.8 535 2113.6 606.9 1964c74.6-155.5-220.8-162.3-415-360.7-130.1-132.8-224.4-293.5-518.2-343.8-320.5-54.7-194.3 411.3 89.7 637.9z"/>
    </g></g>
    <g id="large-gear" class="lr"><g class="fx">
      <path d="M1448.3 960.1a744 744 0 0 0-4.4-79l111.5-86.5-71.5-286.4-197.2-4.9a727.72 727.72 0 0 0-112.3-111.7l-4.9-197.7-286.3-71.4-87.9 113.3c-50.1-5.2-100.7-5.2-150.7 0l-87.9-113.2L270.4 194l-4.9 197.7a723.96 723.96 0 0 0-112.3 111.8l-197.1 4.9-71.4 286.4 111.5 86.6c-5.8 51.2-6 102.7-.6 153.9l-110.9 86.2 71.4 286.4 193.7 4.9c34.1 43 72.9 82 115.7 116.3l4.9 193.1 286.3 71.4 84.9-109.2c52.2 5.9 104.7 5.9 156.9 0l84.9 109.2 286.3-71.4 4.9-193.1c42.9-34.3 81.7-73.4 115.7-116.3l193.7-4.9 71.4-286.4-110.9-86.2c2.4-25 3.8-50.1 3.8-75.2z"/>
    </g></g>
    <g id="large-rough-circle" class="lr"><g class="fx">
        <path d="m720 1679.7-72.3-32.2-77.4 16.7-64-46.6-79.1.1-52.8-58.9-77.4-16.5-39.4-68.6-72.4-32-24.4-75.3-64.2-46.3-8.2-78.7-53-58.8 8.5-78.7-39.6-68.5L28.9 960 4.3 884.9l39.6-68.5-8.5-78.7 53-58.8 8.2-78.7 64.2-46.3 24.4-75.3 72.4-32L297 378l77.4-16.5 52.8-58.9 79.1.1 64-46.6 77.4 16.7 72.3-32.2 72.3 32.2 77.4-16.7 64 46.6 79.1-.1 52.8 58.9L1143 378l39.4 68.6 72.4 32 24.4 75.3 64.2 46.3 8.2 78.7 53 58.8-8.5 78.7 39.6 68.5L1411 960l24.7 75.2-39.6 68.5 8.5 78.7-53 58.8-8.2 78.7-64.2 46.3-24.4 75.3-72.4 32-39.4 68.6-77.4 16.5-52.8 58.9-79.1-.1-64 46.6-77.4-16.7-72.3 32.4z"/>
    </g></g>
    <g id="large-sun" class="lr"><g class="fx">
      <path d="M720 412 843.3 23.2l18.5 407.4L1081.6 87 994 485.4l301.2-275-187.7 362.1 362.1-187.7-275 301.2 398.3-87.6-343.6 219.8 407.4 18.5L1268 960l388.8 123.3-407.4 18.5 343.6 219.7-398.3-87.6 275 301.2-362.1-187.7 187.7 362.1-301.2-275 87.6 398.3-219.8-343.6-18.5 407.4L720 1508l-123.3 388.8-18.5-407.4L358.4 1833l87.6-398.3-301.2 275 187.7-362.1-362.1 187.7 275-301.2-398.4 87.6L190.6 1102l-407.4-18.5L172 960l-388.8-123.3 407.4-18.5L-153 598.4 245.4 686l-275-301.2 362.1 187.7-187.7-362.1 301.2 275-87.6-398.3 219.8 343.6 18.5-407.4L720 412z"/>
    </g></g>
    <g id="large-bumpy-circle" class="lr"><g class="fx">
        <path d="M578.8 250.1c-48.8 6.6-98 44.2-105.7 101.1-.6 3-1 6.1-1.5 9.3-28.8-22.7-63.7-33.9-99-26.7-43.3 11-80.8 36-103.9 74.9-14.7 26.4-16.8 60.2-7.7 92.5-88.1-26.5-156.3 43.9-169 122.1-2.8 27.6 4.8 54.8 22.7 80.8 9.2 11.2 3.1 6.7-6 9.5-55.3 8.2-92.5 57.4-98.8 105.2-12.6 47.7 3.4 107.5 52.9 136.3 10.3 6 8.2 4.4 0 9.8C-9.6 1009.6-7.1 1103 38 1165.8c42.3 51.9 95.6 32.5 77 50.1-34.5 45.4-26.7 107.2 3.3 146.2 28.1 47.2 83.8 75.2 142.9 56.8-18.4 58.8 9.6 115.3 56.8 142.9 40 30.4 104.6 39.5 153.8-2.3 4 33.2 18.8 63.7 42.5 82.5 36.3 27.2 80.4 35.7 124.6 29.4 35.4-6.8 63.2-30.6 81.2-62.6 1.6 2.8 3.2 5.5 4.9 8 28.7 49.3 88.8 65.7 136.3 52.9 48.8-6.6 98-44.2 105.7-101.1.6-3 1-6.1 1.5-9.3 28.8 22.7 63.7 34 99 26.7 43.3-11 80.7-36 103.9-74.9 14.7-26.4 16.8-60.2 7.7-92.5 60.6 19.7 118.1-13.3 142.9-56.8 32.7-43.4 37.5-106.5-2.3-153.8 61.2-5.5 102.8-52.9 110.3-107.1 12.6-47.7-3.4-107.5-52.9-136.3-23.7-9.1 32.8-11.7 51.9-75.8 17.7-75.1-16-162.7-100.1-176-11.8-1.6-9.3-1-3.7-9 34.5-45.3 26.7-107.2-3.3-146.2-24.4-41.8-77-73-131.5-59.4-11 2-12.7 5.7-9.2-6.5 6.6-30.9 3.3-58.9-9.9-83.4-41.6-67.5-131.6-106.3-202.8-48.2-4-33.2-18.8-63.7-42.5-82.5-36.3-27.2-80.4-35.7-124.6-29.4-35.4 6.8-63.2 30.6-81.2 62.6-1.6-2.8-3.2-5.5-4.9-8-28.8-49-89-65.5-136.5-52.7z"/>
    </g></g>
    <g id="large-sine" class="lr"><g class="fx">
      <path d="M720 410.5c-53.7 0-118.7-91.5-168.2-78.2-51.2 13.7-61.6 125.9-106.4 151.8-45.5 26.3-147.7-20.3-184.7 16.6-36.9 36.9 9.7 139.2-16.6 184.7-26 44.8-138.1 55.3-151.8 106.4C79 841.3 170.5 906.3 170.5 960c0 53.7-91.5 118.7-78.2 168.2 13.7 51.2 125.9 61.6 151.8 106.4 26.3 45.5-20.3 147.7 16.6 184.7 36.9 36.9 139.2-9.7 184.7 16.6 44.8 26 55.3 138.1 106.4 151.8 49.5 13.3 114.5-78.2 168.2-78.2s118.7 91.5 168.2 78.2c51.2-13.7 61.6-125.9 106.4-151.8 45.5-26.3 147.7 20.3 184.7-16.6 36.9-36.9-9.7-139.2 16.6-184.7 26-44.8 138.1-55.3 151.8-106.4 13.3-49.5-78.2-114.5-78.2-168.2 0-53.7 91.5-118.7 78.2-168.2-13.7-51.2-125.9-61.6-151.9-106.4-26.3-45.5 20.3-147.7-16.6-184.7-36.9-36.9-139.2 9.7-184.7-16.6-44.8-26-55.2-138.1-106.4-151.9-49.4-13.1-114.5 78.3-168.1 78.3z"/>
    </g></g>
    <g id="horizontal-seal" class="lr"><g class="fx">
        <path d="M1271.4 1261.8v-34.1h808.4v-155.2h-808.4v-34.1h808.4V881.2h-808.4V847h808.4V691.8h-808.4v-34.1h808.4V452.2H-639.9v205.5h808.4v34.1h-808.4V847h808.4v34.1h-808.4v157.2h808.4v34.1h-808.4v155.2h808.4v34.1h-808.4v204h2719.6v-204h-808.4l.1.1h0z"/>
        <path d="M1246.4 1287.4v-85.3h863.3v-104h-863.3v-85.3h863.3V906.7h-863.3v-85.3h863.3v-104h-863.3v-85.3h863.3V477.8H-669.7v154.3h863.3v85.3h-863.3v104h863.3v85.3h-863.3v106.1h863.3v85.3h-863.3v104h863.3v85.3h-863.3v152.8h2779.3v-152.8h-863.2 0z"/>
    </g></g>
    <g id="hexagon" class="lr"><g class="fx">
      <path d="M1037.2 410.6H402.8L85.6 960l317.2 549.4h634.4L1354.4 960l-317.2-549.4h0z"/>
    </g></g>
    <g id="large-tilted-square" class="lr"><g class="fx">
      <path d="M720 194.7-45.3 960 720 1725.3 1485.3 960 720 194.7h0z"/>
    </g></g>
    <g id="four-diagonal-bars" class="lr"><g class="fx">
        <path d="M14.7 810.4-94.7 701 461 145.3l109.4 109.4L14.7 810.4zM868 254.7l109.4-109.4L1533.2 701l-109.4 109.4L868 254.7zM570.4 1663.8 461 1773.2l-555.8-555.8L14.7 1108l555.7 555.8zm853.4-555.8 109.4 109.4-555.8 555.8L868 1663.8l555.8-555.8z"/>
    </g></g>
    <g id="middle-bumpy-circle" class="lr"><g class="fx">
      <path d="M503.5 437.4c-36.4 12.5-68.4 48.9-65.6 93.6 0 2.4.1 4.8.3 7.3-25.6-13-54-16.3-79.9-5.4-31.5 15.1-56.4 39.9-68.2 73.2-7.3 22.5-3.7 48.7 8.2 72.1-71.6-6.9-113.1 57.5-110.9 119.4 2.1 21.6 12.1 41.3 29.8 58.5 8.8 7.2 3.4 4.7-3.2 8.2-41.1 14.7-62.2 58.1-59.7 95.7-2.4 38.4 19 81.9 61.3 96.4 8.8 3 6.9 2.1 1.5 7.5-48.9 45.4-32.7 116.5 11.4 157.8 40.3 33.3 78.2 10.4 66.7 26.7-19.6 40-4.1 86.3 24.8 111.6 28.7 31.9 75.7 44.9 118.2 21.7-5.1 47.9 25 86.9 65.3 100.9 35.3 17.2 86.2 14.3 117.5-25.2 8.1 24.9 24.1 46 45.2 56.8 32 15.3 67.1 15.1 100 3.6 26.1-10.6 43.8-33.1 52.7-60.3 1.7 1.9 3.3 3.7 5 5.4 29.5 33.4 78.1 36.8 112.6 19.8 36.4-12.5 68.4-48.9 65.6-93.6 0-2.4-.1-4.8-.3-7.3 25.6 13 54 16.3 79.9 5.4 31.5-15.1 56.4-39.9 68.2-73.2 7.3-22.5 3.7-48.7-8.2-72.1 49.4 5.8 88.5-28.2 100.9-65.3 18.5-38.2 12.5-87.4-25.2-117.5 46.1-13.5 70.8-56.2 68.2-99 2.4-38.4-19-81.9-61.3-96.4-19.6-3.4 23.3-14 28.3-66 2.1-60.3-37.1-122.2-103.6-119.7-9.3.6-7.2.7-4.3-6.4 19.6-40 4.1-86.2-24.8-111.6-25-28.3-70.2-44.2-109.9-25.5-8.1 3.2-8.9 6.3-8-3.5.3-24.7-6.5-45.7-20.3-62.4-42.1-45.4-117.1-61.4-162.8-6-8.1-24.9-24.1-46-45.2-56.8-32-15.3-67.1-15.1-100-3.6-26.1 10.6-43.8 33.1-52.7 60.3-1.7-1.9-3.3-3.7-5-5.4-29.4-33.3-78-36.7-112.5-19.7z"/>
    </g></g>
    <g id="septagon" class="lr"><g class="fx">
      <path d="M720 388.8 272.5 604.3 162 1088.4l309.7 388.3h496.6l309.7-388.3-110.5-484.1z"/>
    </g></g>
    <g id="large-orbs" class="lr"><g class="fx">
        <circle cx="119.4" cy="612.6" r="154.7"/>
        <circle cx="1320.6" cy="1307.4" r="154.7"/>
        <circle cx="719.5" cy="1653.8" r="154.7"/>
        <circle cx="720.5" cy="266.2" r="154.7"/>
        <circle cx="1321.1" cy="613.5" r="154.7"/>
        <circle cx="118.9" cy="1306.5" r="154.7"/>
    </g></g>
    <g id="ten-blocks" class="lr"><g class="fx">
        <path d="M1474.9 744.1 959 911.8l-17.3-53.1L1457.6 691l17.3 53.1zm-316.3-435.3 45.2 32.8-318.9 438.8-45.2-32.8 318.9-438.8zm-877.2.1 318.7 438.8-45.2 32.8-318.7-438.8 45.2-32.8zM-17.6 691l515.9 167.5-17.3 53.1-515.8-167.5 17.2-53.1zm-17.2 484.9L481 1008.5l17.3 53.1L-17.6 1229l-17.2-53.1zm316.2 435.3h0l-45.2-32.8L555 1139.6l45.2 32.8-318.8 438.8zm466.5 133.4H692v-542.4h55.9v542.4zm0-1026.8H692V175.4h55.9v542.4zm410.7 893.4h0l-319.2-438.6 45.2-32.8 319.2 438.6-45.2 32.8zm299-382.2-516-167.6 17.3-53.1 516 167.6-17.3 53.1z"/>
    </g></g>
    <g id="large-flower" class="lr"><g class="fx">
        <path d="M1256.8 1222.8C1044 1068.2 750.3 970 722.1 960.8c28.2 9.1 323.6 102.3 586.6 102.3 276.5 0 477.1-103 477.1-103s-200.6-103-477.1-103c-263 0-558.3 93.2-586.6 102.3 28.2-9.2 321.9-107.5 534.7-262 223.7-162.5 325.5-363.8 325.5-363.8s-222.9 34.6-446.6 197.1C922.9 685.2 738.8 934.2 721.3 958.1c17.4-24 197.3-276.1 278.5-526.3 85.4-263 49.5-485.6 49.5-485.6s-160 159-245.4 422c-81.3 250.1-83.9 559.8-84 589.5-.1-29.7-2.7-339.4-84-589.5-85.4-263-245.4-422-245.4-422s-36 222.6 49.5 485.6C521.3 682 701.1 934.1 718.5 958.1c-17.5-24-201.7-272.9-414.4-427.5C80.4 368.1-142.5 333.5-142.5 333.5S-40.7 534.7 183 697.2c212.8 154.6 506.5 252.8 534.7 262-28.3-9-323.6-102.2-586.6-102.2C-145.4 857-346 960-346 960s200.6 103 477.1 103c263 0 558.3-93.2 586.6-102.3-28.2 9.2-321.9 107.5-534.7 262-223.7 162.5-325.5 363.8-325.5 363.8s222.9-34.6 446.6-197.1C516.9 1234.8 701 985.8 718.5 961.9c-17.4 24-197.3 276.1-278.5 526.3-85.4 263-49.5 485.6-49.5 485.6s160-159 245.4-422c81.3-250.1 83.9-559.8 84-589.5.1 29.7 2.7 339.4 84 589.5 85.4 263 245.4 422 245.4 422s36-222.6-49.5-485.6C918.5 1238 738.7 985.9 721.3 961.9c17.5 24 201.7 272.9 414.4 427.5 223.7 162.5 446.6 197.1 446.6 197.1s-101.8-201.2-325.5-363.7z"/>
    </g></g>
    <g id="diamond-ring-2" class="lr"><g class="fx">
      <path d="m469.3 354.8-31.1 184.5 152.5 108.5 31.1-184.5z"/>
      <path d="m849.3 1272.3-31.1 184.5 152.5 108.5 31.1-184.5z"/>
      <path d="m1325.2 709.4-184.5-31.1-108.4 152.4 184.5 31.1z"/>
      <path d="m407.7 1089.4-184.5-31.1-108.4 152.4 184.5 31.2z"/>
      <path d="m114.8 709.4 108.4 152.4 184.5-31.1-108.4-152.4z"/>
      <path d="m1032.3 1089.4 108.4 152.5 184.5-31.2-108.4-152.4z"/>
      <path d="M970.7 354.8 818.2 463.3l31.1 184.5 152.5-108.5z"/>
      <path d="m590.7 1272.3-152.5 108.5 31.1 184.5 152.5-108.5z"/>
    </g></g>
    <g id="middle-sine-1" class="lr"><g class="fx">
      <path d="M600.5 514.2C557 525.9 484.3 465.8 447 487.3c-38.6 22.3-22.6 115.5-53.4 146.3-31.2 31.3-124.3 15.6-146.2 53.6-21.9 38 38.2 110.8 26.7 153.4C262.8 882.6 174 915.5 174 960c0 43.1 88.3 75.9 100 119.5s-48.4 116.2-26.9 153.5c22.3 38.6 115.5 22.6 146.3 53.4 31.3 31.2 15.6 124.3 53.6 146.2s110.8-38.2 153.4-26.7c42 11.3 74.9 100.1 119.4 100.1 43.1 0 75.9-88.3 119.5-100 43.5-11.7 116.2 48.4 153.5 26.9 38.6-22.3 22.6-115.5 53.4-146.3 31.2-31.3 124.3-15.6 146.2-53.6s-38.2-110.8-26.7-153.4c11.3-42 100.1-74.9 100.1-119.4 0-43.1-88.3-75.9-100-119.5-11.7-43.5 48.4-116.2 26.9-153.5-22.3-38.5-115.5-22.6-146.3-53.3-31.3-31.2-15.6-124.3-53.6-146.2-38-21.9-110.8 38.2-153.4 26.7-42-11.3-74.8-100.1-119.4-100.1-43.1-.1-76 88.2-119.5 99.9z"/>
    </g></g>
    <g id="large-asterisk" class="lr"><g class="fx">
        <path d="m841.1 351.1-2.3 322.1 226.1-229.4 171.3 171.3-225.6 232.7h318.3v224.5h-318.8l226.1 232.7-171.3 171.3-226.1-229.4 2.3 322.1H598.9l2.3-322.1-226.1 229.4L203.8 1305l226.4-232.7H111.1V847.8h318.1L203.8 615.1l171.3-171.3 226.1 229.4-2.3-322.1h242.2z"/>
    </g></g>
    <g id="large-diamond" class="lr"><g class="fx">
        <path d="M720 174.5 120.1 960 720 1745.5 1319.9 960z"/>
    </g></g>
    <g id="middle-sine-2" class="lr"><g class="fx">
      <path d="M525 622.2c-33 19-105.4-14.1-131.1 11.6-26.6 26.6 6.8 99.2-11.5 131.1-18.6 32.3-98 39.9-107.6 75.7-9.6 35.8 55.4 82.1 55.3 119.4-.1 36.8-65.3 83-55.6 119.3 9.4 35.2 88.7 42.7 107.7 75.6 19 33-14.1 105.4 11.6 131.1 26.6 26.6 99.2-6.8 131.1 11.5 32.3 18.6 39.9 98 75.7 107.6 35.8 9.6 82.1-55.4 119.4-55.3 36.8.1 83 65.3 119.3 55.6 35.2-9.4 42.7-88.7 75.6-107.7 33-19 105.4 14.1 131.1-11.6 26.6-26.6-6.8-99.2 11.5-131.1 18.6-32.3 98-39.9 107.6-75.7s-55.4-82.1-55.3-119.4c.1-36.8 65.3-83 55.6-119.3-9.4-35.2-88.7-42.7-107.7-75.6-19-33 14.1-105.4-11.6-131.1-26.6-26.6-99.2 6.8-131.1-11.5-32.3-18.6-39.9-98-75.7-107.6-35.8-9.6-82.1 55.4-119.4 55.3-36.8-.1-83-65.3-119.3-55.6-35.2 9.4-42.7 88.7-75.6 107.7z"/>
    </g></g>
    <g id="cross" class="lr"><g class="fx">
        <path d="M1994.2 882H798V-314.2H642V882H-554.2v156H642v1196.2h156V1038h1196.2z"/>
    </g></g>
    <g id="eight-breaches" class="lr"><g class="fx">
      <path d="M-690.5 655 420.3 910v100.4L-690.5 1265c-37-188.3-47.5-401.4 0-610z"/>
      <path d="m2130.5 1265-1110.8-255V909.6L2130.5 655c37 188.3 47.5 401.4 0 610z"/>
      <path d="M1025-450.5 770 660.3H669.6L415-450.5c188.3-37 401.4-47.5 610 0z"/>
      <path d="m415 2370.5 255-1110.8h100.4L1025 2370.5c-188.3 37-401.4 47.5-610 0z"/>
      <path d="m-61.7-253.1 605.2 965.8-71 71L-493 178.3C-386.1 18.9-242.8-139.1-61.7-253.1z"/>
      <path d="m1501.7 2173.1-605.2-965.8 71-71 965.5 605.4c-106.9 159.4-250.2 317.4-431.3 431.4z"/>
      <path d="M1933.1 178.3 967.3 783.5l-71-71L1501.7-253c159.4 106.9 317.4 250.2 431.4 431.3z"/>
      <path d="m-493.1 1741.7 965.8-605.2 71 71L-61.7 2173c-159.4-106.9-317.4-250.2-431.4-431.3z"/>
    </g></g>
    <g id="diamond-ring-1" class="lr"><g class="fx">
      <path d="m720 305-99.3 158.5L720 622.1l99.3-158.6z"/>
      <path d="m720 1298-99.3 158.6 99.3 158.5 99.3-158.5z"/>
      <path d="m1375.1 960.1-158.6-99.4-158.5 99.4 158.5 99.3z"/>
      <path d="m382 960.1-158.5-99.4-158.6 99.4 158.6 99.3z"/>
      <path d="m256.8 496.8 41.9 182.4L481 721.1l-41.9-182.4z"/>
      <path d="m959 1199 41.9 182.4 182.3 41.9-41.9-182.4z"/>
      <path d="m1183.2 496.8-182.3 41.9L959 721.1l182.3-41.9z"/>
      <path d="m481 1199-182.3 41.9-41.9 182.4 182.3-41.9z"/>
    </g></g>
    <g id="spark" class="lr"><g class="fx">
      <path d="M1325.5 960c-519 0-207.4-230.2 2181.5-1611.3C1118.1 729.8 763.4 884.4 1023.8 431 763.4 884.4 720 500.6 720-2255.9 720 500.6 676.6 884.4 416.2 431 676.6 884.4 321.9 729.8-2067-651.3 321.9 729.8 633.5 960 114.5 960c519 0 207.4 230.2-2181.5 1611.3C321.9 1190.2 676.6 1035.6 416.2 1489 676.6 1035.6 720 1419.4 720 4175.9c0-2756.5 43.4-3140.4 303.8-2686.9-260.4-453.5 94.3-298.9 2483.2 1082.3C1118.1 1190.2 806.5 960 1325.5 960z"/>
    </g></g>
    <g id="large-six-petal" class="lr"><g class="fx">
        <path d="M720 960c270.3-937.1-270.3-937.1 0 0z"/>
        <path d="M720 960c-270.3 937.1 270.3 937.1 0 0z"/>
        <path d="M720 960c676.4 702.6 946.7 234.5 0 0z"/>
        <path d="M720 960c-676.4-702.6-946.7-234.5 0 0z"/>
        <path d="M720 960c-946.7 234.5-676.4 702.6 0 0z"/>
        <path d="M720 960c946.7-234.5 676.4-702.6 0 0z"/>
    </g></g>
    <g id="radiant-light-1" class="lr"><g class="fx">
        <path d="M876.6-425.4H563.3L720 960 876.6-425.4z"/>
        <path d="m-558.1 1517 156.6 271.4L720 960l-1278.1 557z"/>
        <path d="m1841.6 1788.4 156.6-271.4L720 960l1121.6 828.4z"/>
        <path d="M563.3 2345.4h313.3L720 960 563.3 2345.4z"/>
        <path d="m1998.2 403-156.6-271.4L720 960l1278.2-557z"/>
        <path d="M-401.5 131.6-558.1 403 720 960-401.5 131.6z"/>
    </g></g>
    <g id="eight-triangles" class="lr"><g class="fx">
        <path d="M41.5-257.4 338-380.2l203.7 910.9L41.5-257.4z"/>
        <path d="M1398.5-257.4 1102-380.2 898.3 530.7l500.2-788.1z"/>
        <path d="M1398.5 2177.4 1102 2300.2l-203.7-911 500.2 788.2z"/>
        <path d="M41.5 2177.4 338 2300.2l203.7-911-500.2 788.2z"/>
        <path d="M1937.4 281.5 2060.2 578l-911 203.6 788.2-500.1z"/>
        <path d="m1937.4 1638.5 122.8-296.5-911-203.7 788.2 500.2z"/>
        <path d="M-497.4 1638.5-620.2 1342l911-203.7-788.2 500.2z"/>
        <path d="M-497.4 281.5-620.2 578l911 203.6-788.2-500.1z"/>
    </g></g>
    <g id="radiant-light-2" class="lr"><g class="fx">
      <path d="m720.5 959.9-779 1024.8 129.1 86.5L720.5 959.9z"/>
      <path d="M1370.4-151.3 720.5 959.9l779-1024.8-129.1-86.4z"/>
      <path d="M720.5 959.9-304.3 181l-86.5 129L720.5 959.9z"/>
      <path d="m1831.7 1609.9-1111.2-650 1024.8 779 86.4-129z"/>
      <path d="M720.5 959.9-555 1133.7l30.1 152.4L720.5 959.9z"/>
      <path d="M1965.8 633.7 720.5 959.9l1275.4-173.8-30.1-152.4h0z"/>
      <path d="M720.5 959.9 546.7-315.5l-152.4 30.1L720.5 959.9z"/>
      <path d="M1046.7 2205.3 720.5 959.9l173.8 1275.4 152.4-30z"/>
      <path d="M719.5 960.1 392 2205l152.3 30.5L719.5 960.1z"/>
      <path d="M894.7-315.3 719.5 960.1 1047-284.7l-152.3-30.6h0z"/>
      <path d="M719.5 960.1-525.4 632.6l-30.5 152.3L719.5 960.1z"/>
      <path d="M1994.9 1135.3 719.5 960.1l1244.8 327.5 30.6-152.3z"/>
      <path d="m719.5 960.1-1111.8 648.6 86.1 129.3L719.5 960.1z"/>
      <path d="M1745.2 182.2 719.5 960.1l1111.8-648.6-86.1-129.3z"/>
      <path d="M719.5 960.1 70.9-151.7-58.5-65.6l778 1025.7z"/>
      <path d="M1497.4 1985.8 719.5 960.1 1368.1 2072l129.3-86.2h0z"/>
    </g></g>
    <g id="middle-blob" class="lr"><g class="fx">
        <path d="M947.4 665.5C837.5 521.5 834.5 393.3 720 393.1h-.6c-114.5.2-117.4 128.4-227.3 272.4-110 143.9-210.4 128.4-210.4 294.5s100.4 149.5 210.3 293.4c109.8 143.7 113.4 271.7 227.4 272.3h.6c114-.6 117.7-128.6 227.4-272.3 109.9-143.9 210.3-127.3 210.3-293.4s-100.4-150.6-210.3-294.5z"/>
    </g></g>
    <g id="thin-band" class="lr"><g class="fx">
      <path d="M1909.5 760.9h-2379v398.2h2378.9l.1-398.2h0z"/>
    </g></g>
    <g id="four-blocks" class="lr"><g class="fx">
        <path d="M110.8 861.5h127.7v197.1H110.8z"/>
        <path d="M1201.5 861.5h127.7v197.1h-127.7z"/>
        <path d="M621.5 350.8h197.1v127.7H621.5z"/>
        <path d="M621.5 1441.5h197.1v127.7H621.5z"/>
    </g></g>
    <g id="tilted-cross" class="lr"><g class="fx">
        <path d="m1641.2 82.9-44.1-44.1L720 915.9-157.1 38.8l-44.1 44.1L675.9 960l-877.1 877.1 44.1 44.1L720 1004.1l877.1 877.1 44.1-44.1L764.1 960z"/>
    </g></g>
    <g id="open-aperture" class="lr"><g class="fx">
        <path d="M1312.2-271c-15.6 187.8-118.5 350.8-268 448.3 22.9 108.9 76.7 212.6 161.3 297.2s188.3 138.3 297.2 161.3c174.7 36.8 362.8-5.7 506.6-127.5-120.1-342.8-373-623.1-697.1-779.3z"/>
        <path d="M395.8 177.3c93.2 60.8 204.6 96.1 324.2 96.1s231-35.3 324.2-96.1c149.5-97.5 252.5-260.5 268-448.3-179.2-86.3-380-134.7-592.2-134.7-158.3 0-310.3 26.9-451.7 76.5C390.1-185.4 432.6 2.6 395.8 177.3z"/>
        <path d="M-62.7 635.8C46.2 612.9 150 559.1 234.5 474.5s138.3-188.3 161.3-297.2c36.8-174.7-5.7-362.8-127.5-506.6-342.8 120.1-623.1 373-779.3 697 187.8 15.7 350.8 118.6 448.3 268.1z"/>
        <path d="M-62.7 1284.2C-1.9 1191 33.5 1079.6 33.5 960S-1.9 729-62.7 635.8c-97.5-149.5-260.5-252.5-448.3-268-86.3 179.2-134.7 380-134.7 592.2 0 158.3 26.9 310.3 76.5 451.7 143.8-121.8 331.8-164.3 506.5-127.5z"/>
        <path d="M395.8 1742.7c-22.9-108.9-76.7-212.6-161.3-297.2S46.2 1307.1-62.7 1284.2c-174.7-36.8-362.8 5.7-506.6 127.5 120.1 342.8 373 623.1 697 779.3 15.7-187.8 118.6-350.8 268.1-448.3z"/>
        <path d="M1044.2 1742.7c-93.2-60.8-204.6-96.1-324.2-96.1s-231 35.3-324.2 96.1c-149.5 97.5-252.5 260.5-268 448.3 179.2 86.3 380 134.7 592.2 134.7 158.3 0 310.3-26.9 451.7-76.5-121.8-143.8-164.3-331.8-127.5-506.5z"/>
        <path d="M1502.7 1284.2c-108.9 22.9-212.6 76.7-297.2 161.3s-138.3 188.3-161.3 297.2c-36.8 174.7 5.7 362.8 127.5 506.6 342.8-120.1 623.1-373 779.3-697-187.8-15.7-350.8-118.6-448.3-268.1z"/>
        <path d="M1502.7 635.8c-60.8 93.2-96.1 204.6-96.1 324.2s35.3 231 96.1 324.2c97.5 149.5 260.5 252.5 448.3 268 86.3-179.2 134.7-380 134.7-592.2 0-158.3-26.9-310.3-76.5-451.7-143.8 121.8-331.8 164.3-506.5 127.5z"/>
    </g></g>
    <g id="middle-sun" class="lr"><g class="fx">
      <path d="m1200.5 960-43.9-69.1 20.4-79.4-63.1-52.2-5.2-81.8-76.1-30.1-30.2-76.1-81.8-5.2-52.1-63.1-79.4 20.4-69.1-43.9-69.1 43.9-79.4-20.4-52.2 63.1-81.8 5.2-30.1 76.1-76.1 30.2-5.2 81.8-63.1 52.1 20.4 79.4-43.9 69.1 43.9 69.1-20.4 79.4 63.1 52.2 5.2 81.7 76.1 30.2 30.2 76.1 81.8 5.2 52.2 63.1 79.4-20.4 69.1 43.9 69.1-43.9 79.4 20.4 52.2-63.1 81.8-5.2 30.2-76.1 76.1-30.2 5.2-81.8 63.1-52.2-20.4-79.4 43.7-69z"/>
    </g></g>
    <g id="large-petals-1" class="lr"><g class="fx">
        <path d="M526.1 1242.6c109.3-109.3 221.9-268 200.7-289.3s-180 91.4-289.3 200.7-113 134-79.2 167.8 58.5 30.1 167.8-79.2z"/>
        <path d="M782.6 1296.9c0-154.5-32.6-346.5-62.7-346.5s-62.7 192-62.7 346.5 14.9 174.6 62.7 174.7c47.9 0 62.7-20.2 62.7-174.7z"/>
        <path d="M1002.5 1153.9c-109.3-109.3-268-221.9-289.3-200.7-21.3 21.3 91.4 180.1 200.7 289.3 109.2 109.2 134 113 167.8 79.2 33.8-33.6 30.1-58.5-79.2-167.8z"/>
        <path d="M1056.9 897.4c-154.5 0-346.5 32.6-346.5 62.7s192 62.7 346.5 62.7 174.7-14.9 174.7-62.7c-.1-47.8-20.2-62.7-174.7-62.7z"/>
        <path d="M913.9 677.5c-109.3 109.3-222 268-200.7 289.3s180-91.4 289.3-200.7 113-134 79.2-167.8c-33.7-33.7-58.5-30-167.8 79.2z"/>
        <path d="M657.3 623.2c0 154.5 32.6 346.5 62.7 346.5s62.7-192 62.7-346.5-14.9-174.6-62.7-174.7c-47.8 0-62.7 20.2-62.7 174.7z"/>
        <path d="M437.5 766.2c109.3 109.2 268 221.9 289.3 200.7 21.3-21.3-91.4-180-200.7-289.3s-134-113-167.8-79.2c-33.8 33.6-30.1 58.5 79.2 167.8z"/>
        <path d="M729.4 958.4c.1.6.2 1.1.2 1.7 0 1.2-.3 2.4-.9 3.6.5-1.5.7-3.3.7-5.3z"/>
        <path d="M383.1 897.4c79.2 0 168.2 8.6 236.2 21 34.9 24.1 65.1 41.6 85 48.2-2.2 4.4-4.4 9.8-6.6 15.8-60.9 21.9-198.3 40.4-314.6 40.4-154.5 0-174.6-14.9-174.6-62.7 0-47.9 20.1-62.8 174.6-62.7z"/>
        <circle cx="720" cy="960" r="99.6"/>
    </g></g>
    <g id="inner-rings" class="lr"><g class="fx">
        <path d="M720 516c-245.2 0-444 198.8-444 444s198.8 444.1 444 444.1 444-198.8 444-444S965.2 516 720 516zm.1 768.1c-178.9 0-324-145.1-324-324s145.1-324 324-324 324 145.1 324 324-145.1 324-324 324z"/>
        <path d="M720 556.8c-222.7 0-403.3 180.5-403.3 403.3s180.5 403.2 403.3 403.2 403.3-180.5 403.3-403.3S942.7 556.8 720 556.8zm0 767c-200.9 0-363.7-162.8-363.7-363.7S519.1 596.4 720 596.4s363.7 162.8 363.7 363.7-162.8 363.7-363.7 363.7z"/>
    </g></g>
    <g id="middle-petals" class="lr"><g class="fx">
      <path d="M1165 960.1c0-71.4-12.2-101.1-153-101.1-18.4 0-37.6 1.4-57.1 3.8 15.5-12.1 30.1-24.7 43.1-37.7 99.6-99.6 87.1-129.2 36.7-179.7-50.5-50.5-80.1-62.9-179.7 36.7-13 13-25.6 27.5-37.6 43 2.4-19.5 3.8-38.6 3.8-57 0-140.8-29.8-153-101.1-153S619 527.3 619 668.1c0 18.4 1.4 37.5 3.8 57-12-15.5-24.6-30-37.6-43-99.6-99.6-129.2-87.1-179.7-36.7-50.5 50.5-62.9 80 36.7 179.7 13 13 27.5 25.6 43.1 37.7-19.5-2.4-38.7-3.8-57.1-3.8-140.8 0-153 29.8-153 101.1s12.2 101.1 153 101.1c18.4 0 37.6-1.4 57.1-3.8-15.5 12.1-30.1 24.7-43.1 37.7-99.5 99.5-87.1 129.2-36.7 179.7 50.5 50.5 80.1 62.9 179.7-36.7 13-13 25.6-27.5 37.6-43-2.4 19.5-3.8 38.6-3.8 57 0 140.8 29.8 153 101.1 153s101.1-12.2 101.1-153c0-18.4-1.4-37.5-3.8-57 12 15.5 24.6 30 37.6 43 99.6 99.6 129.2 87.1 179.7 36.7s62.9-80.1-36.7-179.7c-13-13-27.5-25.6-43-37.6 19.5 2.4 38.7 3.8 57 3.8 140.8-.1 153-29.9 153-101.2z"/>
    </g></g>
    <g id="middle-tilted-square" class="lr"><g class="fx">
      <path d="M720 520.2 280.2 960 720 1399.8 1159.8 960 720 520.2h0z"/>
    </g></g>
    <g id="middle-square" class="lr"><g class="fx">
      <path d="M1031 649H409v622h622V649z"/>
    </g></g>
    <g id="bumpy-circle" class="lr"><g class="fx">
      <path d="M641.7 566.4c-27.1 3.7-54.3 24.5-58.6 56-.3 1.7-.6 3.4-.8 5.2-16-12.6-35.3-18.8-54.9-14.8-24 6.1-44.8 20-57.6 41.5-8.2 14.6-9.3 33.4-4.3 51.3-48.8-14.7-86.7 24.3-93.7 67.7-1.6 15.3 2.7 30.4 12.6 44.8 5.1 6.2 1.7 3.7-3.3 5.3-30.6 4.6-51.3 31.8-54.8 58.4-7 26.4 1.9 59.6 29.4 75.6 5.7 3.3 4.5 2.5 0 5.4-40.3 24.8-38.9 76.6-13.9 111.4 23.4 28.8 53 18.1 42.7 27.8-19.1 25.2-14.8 59.4 1.8 81.1 15.6 26.2 46.5 41.7 79.3 31.5-10.2 32.6 5.4 63.9 31.5 79.3 22.2 16.9 58 21.9 85.3-1.2 2.2 18.4 10.4 35.3 23.6 45.7 20.2 15.1 44.6 19.8 69.1 16.3 19.6-3.8 35.1-17 45-34.7.9 1.6 1.8 3 2.7 4.5 15.9 27.3 49.2 36.4 75.6 29.3 27.1-3.7 54.3-24.5 58.6-56 .3-1.7.6-3.4.8-5.2 16 12.6 35.3 18.8 54.9 14.8 24-6.1 44.8-20 57.6-41.5 8.2-14.6 9.3-33.4 4.3-51.3 33.6 10.9 65.5-7.4 79.3-31.5 18.1-24.1 20.8-59.1-1.3-85.3 33.9-3 57-29.3 61.2-59.4 7-26.4-1.9-59.6-29.3-75.6-13.2-5.1 18.2-6.5 28.8-42 9.8-41.7-8.9-90.2-55.5-97.6-6.5-.9-5.1-.5-2.1-5 19.2-25.2 14.8-59.4-1.8-81.1-13.5-23.2-42.7-40.5-72.9-33-6.1 1.1-7 3.2-5.1-3.6 3.7-17.1 1.8-32.7-5.5-46.2-23-37.4-73-58.9-112.5-26.7-2.2-18.4-10.4-35.3-23.6-45.7-20.3-15.2-44.8-19.9-69.3-16.4-19.6 3.8-35.1 17-45 34.7l-2.7-4.5c-15.9-27.3-49.2-36.4-75.6-29.3h0z"/>
    </g></g>
    <g id="middle-inner-square" class="lr"><g class="fx">
      <path d="M990.5 689.5h-541v541h541v-541h0z"/>
    </g></g>
    <g id="middle-gear" class="lr"><g class="fx">
      <path d="M1045.6 961c0-11.8-.7-23.6-2-35.3l54-39.4-32.2-129.4h-92a329.63 329.63 0 0 0-50.2-50v-92.1l-129.4-32.3-40.1 54.8c-22.5-2.4-45-2.4-67.5 0l-40.1-54.8-129.4 32.3V707a325.13 325.13 0 0 0-50.2 50h-91.9l-32.3 129.4 54 39.4a316.5 316.5 0 0 0-.3 68.8l-53.7 39.2 32.3 129.5h90.3c15.2 19.3 32.7 36.7 51.8 52v90l129.4 32.2 38.7-52.8c23.3 2.6 46.9 2.6 70.1 0l38.7 52.8 129.4-32.2v-90c19.2-15.3 36.5-32.8 51.8-52h90.3l32.2-129.5-53.7-39.2c1.5-11.2 2-22.3 2-33.6z"/>
    </g></g>
    <g id="middle-diamond" class="lr"><g class="fx">
        <path d="M720 517.5 382.1 960 720 1402.5 1057.9 960z"/>
    </g></g>
    <g id="middle-inner-tilted-square" class="lr"><g class="fx">
      <path d="M720 577.5 337.5 960 720 1342.5 1102.5 960 720 577.5z"/>
    </g></g>
    <g id="pop-star" class="lr"><g class="fx">
        <path d="m838.1 1028.2 805.5-68.2-805.5-68.2 343.7-731.7L720 823.6h0s0 0 0 0 0 0 0 0h0L258.2 160.1l343.7 731.7s0 0 0 0v0L-203.6 960l805.5 68.2s0 0 0 0 0 0 0 0h0l-343.7 731.7L720 1096.4h0s0 0 0 0 0 0 0 0h0l461.8 663.5-343.7-731.7s0 0 0 0z"/>
    </g></g>
    <g id="large-petals-2" class="lr"><g class="fx">
        <path d="M1055.2 889.1c-142.7 59.1-332.6 102.5-344.1 74.7s153.3-131.3 296.1-190.5 167-53.1 185.3-9 5.5 65.6-137.3 124.8h0z"/>
        <path d="M1055.2 889.1c-142.7 59.1-332.6 102.5-344.1 74.7s153.3-131.3 296.1-190.5 167-53.1 185.3-9 5.5 65.6-137.3 124.8h0z"/>
        <path d="M712 954.9c-.3.5-.6 1-.8 1.5-.5 1.1-.6 2.3-.5 3.7 0-1.6.5-3.3 1.3-5.2z"/>
        <path d="M906.8 672.8c-59.1 142.8-162.7 307.6-190.5 296.1s15.6-201.3 74.7-344.1 80.6-155.7 124.7-137.4c44.2 18.4 50.2 42.7-8.9 185.4z"/>
        <path d="M649 624.8c59.1 142.8 102.5 332.6 74.7 344.1S592.3 815.5 533.2 672.8s-53.1-167-9-185.3c44.1-18.4 65.6-5.4 124.8 137.3z"/>
        <path d="M432.7 773.3C575.4 832.4 740.3 936 728.8 963.8s-201.3-15.6-344.1-74.7S229 808.5 247.3 764.3s42.7-50.2 185.4 9h0z"/>
        <path d="M384.8 1031.1c142.8-59.1 332.6-102.5 344.1-74.7s-153.4 131.4-296.1 190.5c-142.7 59.1-167 53.1-185.3 9s-5.5-65.7 137.3-124.8h0z"/>
        <path d="M533.2 1247.3c59.1-142.8 162.7-307.6 190.5-296.1s-15.6 201.3-74.7 344.1-80.6 155.7-124.7 137.4-50.2-42.6 8.9-185.4z"/>
        <path d="M791 1295.3c-59.1-142.8-102.5-332.6-74.7-344.1s131.3 153.4 190.5 296.1 53.1 167 9 185.3-65.6 5.5-124.8-137.3z"/>
        <path d="M1055.2 1031.1c-73.2-30.3-158.7-56.4-226.2-71-41.4 8.9-76.1 13.5-97 12 .4 5 .4 10.7.1 17.1 47.9 43.6 167.8 113.2 275.2 157.7 142.8 59.1 167 53.1 185.3 8.9s5.4-65.6-137.4-124.7z"/>
        <circle cx="720" cy="960" r="36.2"/>
    </g></g>
    <g id="middle-orbs" class="lr"><g class="fx">
        <circle cx="536.2" cy="641" r="78"/>
        <circle cx="903.8" cy="1279" r="78"/>
        <circle cx="535.7" cy="1278.7" r="78"/>
        <circle cx="904.3" cy="641.3" r="78"/>
        <circle cx="1088.1" cy="960.3" r="78"/>
        <circle cx="351.9" cy="959.7" r="78"/>
    </g></g>
    <g id="spiral-petals" class="lr"><g class="fx">
        <path d="M719.9 923.8c-70.5-36.7-192.1-20.3-258.4 17.7-10.9 6.3-20.2 12.4-28 18.4-56.6 43.4-36.8 82.7 8.1 160.6 45.1 78 69.2 114.6 135.1 87.4-11-84.4 28.1-186.9 88.6-248 19.1-18 42.9-33.5 69.1-25.5-4-3.9-8.9-7.4-14.5-10.6z"/>
        <path d="M863.2 711.8C853.9 641 810 638.5 720 638.5c-90 0-133.9 2.6-143.3 73.3 78.6 32.6 147.9 117.7 170.6 200.8 6 25.6 7.6 54-12.6 72.7 35.4-11.7 62.8-48 83.1-81.9 33.7-58.1 54.1-128.1 45.4-191.6z"/>
        <path d="M998.4 799.3c-45.1-78-69.2-114.6-135.1-87.4 11 84.4-28.1 186.9-88.6 248-19.1 18-42.9 33.5-69.1 25.5 11.6 10.7 25.7 16.9 41.8 21.8 71.6 19.7 167.9 6.9 231.2-28.8 81.8-46.7 77-84.3 19.8-179.1z"/>
        <path d="M1006.5 959.9c-7.8 6-17.1 12.1-28 18.4-63.2 35.7-159.5 48.6-231.2 28.8-25.1-7.6-50.5-20.5-56.6-47.3-3.5 15.5-1.9 30.9 2 47.5 18.7 71.9 78 148.8 140.5 185.7 10.9 6.3 20.9 11.3 30.1 15.1 65.9 27.2 90.1-9.6 135-87.4 45-78 64.7-117.3 8.2-160.8z"/>
        <path d="M833.2 1192.9c-62.5-36.9-121.8-113.8-140.5-185.7-6-25.5-7.6-54 12.5-72.7-15.1 4.8-27.5 13.8-39.9 25.4-52.9 52.2-89.9 142-90.6 214.6-.6 94.3 34.3 109 145.2 106.8 90 0 133.9-2.6 143.3-73.3-9.1-3.7-19-8.8-30-15.1z"/>
        <path d="M747.3 912.5c-22.7-83.1-91.9-168.2-170.6-200.8-65.9-27.2-90.1 9.6-135 87.4-45 77.9-64.7 117.2-8.2 160.7 7.8-6 17.1-12.1 28-18.4 63.2-35.7 159.5-48.6 231.2-28.8 25.1 7.6 50.5 20.5 56.6 47.3 3.6-15.4 1.9-30.8-2-47.4z"/>
    </g></g>
    <g id="small-pop-star" class="lr"><g class="fx">
        <path d="M1237.3 1258.7 808.5 960h0s0 0 0 0 0 0 0 0h0l428.8-298.7-473.1 222s0 0 0 0L720 362.6l-44.3 520.7s0 0 0 0h0l-473.1-222L631.5 960h0s0 0 0 0 0 0 0 0h0l-428.8 298.7 473.1-222s0 0 0 0 0 0 0 0h0l44.3 520.7 44.3-520.7s0 0 0 0 0 0 0 0v0l472.9 222z"/>
    </g></g>
    <g id="circlet-1" class="lr"><g class="fx">
      <path d="M720 1298c-45.6 0-89.9-8.9-131.6-26.6-40.3-17-76.4-41.4-107.4-72.4s-55.4-67.2-72.4-107.4c-17.6-41.7-26.6-86-26.6-131.6s8.9-89.9 26.6-131.6C425.6 788.1 450 752 481 721s67.2-55.4 107.4-72.4C630.1 631 674.4 622 720 622s89.9 8.9 131.6 26.6C891.9 665.6 928 690 959 721s55.4 67.2 72.4 107.4c17.6 41.7 26.6 86 26.6 131.6s-8.9 89.9-26.6 131.6c-17 40.3-41.4 76.4-72.4 107.4s-67.2 55.4-107.4 72.4c-41.8 17.7-86 26.6-131.6 26.6zm0-603.2c-146.3 0-265.3 119-265.3 265.3s119 265.3 265.3 265.3 265.3-119 265.3-265.3S866.2 694.8 720 694.8z"/>
    </g></g>
    <g id="circlet-2" class="lr"><g class="fx">
      <path d="M725.2 1532.4H720c-55.7.5-111.5-7.7-165.9-24.4a577.47 577.47 0 0 1-150.3-71.3c-46.7-31-88.4-68.2-124-110.7-36.6-43.7-66-92-87.2-143.5-19.2-45.4-32.5-93-39.6-141.7-6.7-46.7-7.5-94.3-2.4-141.3 9.9-90.5 42.1-179 93-255.7S363.4 503.2 442.8 459c41.3-23 85.3-40.7 131-52.6 47-12.3 95.9-18.6 145.3-18.6h1.6c49.4 0 98.3 6.2 145.3 18.6 45.6 12 89.7 29.7 131 52.6 79.4 44.2 148.3 108.1 199.2 184.8s83.1 165.2 93 255.7c5.1 47 4.4 94.5-2.4 141.3-6.9 48.3-20.3 96-39.6 141.7-21.6 52-51 100.4-87.2 143.5a580.92 580.92 0 0 1-124 110.7c-46.7 31-97.3 55-150.3 71.3-52 16.1-106.1 24.3-160.5 24.4h0zm-5.3-170.1h1c157.3 1.9 309.2-98.9 369.4-245 .1-.3.2-.5.3-.8 52.5-124.1 39.1-265.7-36-378.8-74.8-112.8-199.6-180-333.9-180h-1.6c-134.3 0-259.1 67.3-333.9 180-75.1 113.1-88.5 254.7-36 378.8.1.3.2.5.3.8 59.6 144.8 209.3 245 365.2 245h5.2z"/>
    </g></g>
    <g id="circlet-3" class="lr"><g class="fx">
      <path d="M720 1689.1c-98.5 0-193.9-19.3-283.8-57.3-86.8-36.6-164.8-89.4-231.7-156.2-67-67-119.6-144.9-156.2-231.6C10.2 1154-9 1058.6-9 960.2s19.3-193.9 57.3-283.8c36.6-86.8 89.4-164.8 156.2-231.7s144.9-119.5 231.7-156.2c90-38 185.4-57.3 283.8-57.3s193.9 19.3 283.8 57.3c86.8 36.6 164.8 89.4 231.7 156.2 67 67 119.5 144.9 156.1 231.6 38 90 57.3 185.4 57.3 283.8s-19.3 193.9-57.3 283.8c-36.6 86.8-89.4 164.8-156.2 231.7a726.44 726.44 0 0 1-231.7 156.2c-89.8 38.1-185.3 57.3-283.7 57.3h0zm0-1376.6C362.9 312.5 72.4 603 72.4 960.1s290.5 647.6 647.6 647.6 647.6-290.5 647.6-647.6S1077 312.5 720 312.5z"/>
    </g></g>
    <g id="outer-orbs" class="lr"><g class="fx">
        <circle cx="347.4" cy="1861.2" r="292.3"/>
        <circle cx="1092.5" cy="1861.2" r="292.3"/>
        <circle cx="347.4" cy="58.9" r="292.3"/>
        <circle cx="1092.5" cy="58.9" r="292.3"/>
        <circle cx="-181.1" cy="587.5" r="292.3"/>
        <circle cx="-181.1" cy="1332.6" r="292.3"/>
        <circle cx="1621.1" cy="587.5" r="292.3"/>
        <circle cx="1621.1" cy="1332.6" r="292.3"/>
    </g></g>
    <g id="outer-mainframe" class="lr"><g class="fx">
        <path d="M720 94.8V242c302.4 0 561.1 186.9 666.9 451.5l136.7-54.6C1396.1 320.1 1084.4 94.8 720 94.8z"/>
        <path d="m53.1 1226.5-136.7 54.6c127.5 318.8 439.2 544.1 803.6 544.1V1678c-302.4 0-561.1-186.9-666.9-451.5z"/>
    </g></g>
    <g id="large-mainframe" class="lr"><g class="fx">
        <path d="M720 432.4c-222.2 0-412.3 137.4-490.1 331.8l80.4 32.2c65-162.5 223.9-277.3 409.6-277.3v-86.7h.1z"/>
        <path d="M1129.6 1123.7c-65 162.5-223.9 277.3-409.6 277.3v86.6c222.2 0 412.3-137.4 490.1-331.8l-79.3-31.6-1.2-.5z"/>
    </g></g>
    <g id="four-corner-triangles" class="lr"><g class="fx">
        <path d="M-324.1 225.9-14.3-83.9l388.7 698.5z"/>
        <path d="M1764.1 225.9 1454.3-83.9l-388.7 698.5z"/>
        <path d="m1764.1 1694.1-309.8 309.8-388.7-698.5z"/>
        <path d="m-324.1 1694.1 309.8 309.8 388.7-698.5z"/>
    </g></g>
    <g id="middle-wave" class="lr"><g class="fx">
      <path d="M1013.1 960c0 38.1-30.9 69.8-44.6 102.9-14.2 34.3-15.4 78.4-41.3 104.3s-70 27-104.3 41.3c-33.1 13.7-64.8 44.6-102.9 44.6s-69.8-30.9-102.9-44.6c-34.3-14.2-78.4-15.4-104.3-41.3s-27-70-41.3-104.3c-13.7-33.1-44.6-64.8-44.6-102.9s30.9-69.8 44.6-102.9c14.2-34.3 15.4-78.4 41.3-104.3 25.9-25.9 70-27 104.3-41.3 33.1-13.7 64.8-44.6 102.9-44.6s69.8 30.9 102.9 44.6c34.3 14.2 78.4 15.4 104.3 41.3s27 70 41.3 104.3c13.8 33.2 44.6 64.8 44.6 102.9z"/>
    </g></g>
    <g id="middle-ring" class="lr"><g class="fx">
      <path d="M720 689.5c-149.4 0-270.5 121.1-270.5 270.5s121.1 270.5 270.5 270.5S990.5 1109.4 990.5 960 869.4 689.5 720 689.5zm0 492.3c-122.5 0-221.8-99.3-221.8-221.8S597.5 738.2 720 738.2 941.8 837.5 941.8 960s-99.3 221.8-221.8 221.8z"/>
    </g></g>
    <g id="middle-mainframe" class="lr"><g class="fx">
        <path d="M380.9 824.5c-16.7 41.9-26 87.6-26 135.5s9.2 93.5 26 135.5l54.8-21.9a306.78 306.78 0 0 1 0-227.2l-54.8-21.9z"/>
        <path d="m1059.1 824.5-54.8 21.9c14 35.1 21.8 73.5 21.8 113.6s-7.8 78.4-21.8 113.6l54.8 21.9c16.7-41.9 26-87.6 26-135.5s-9.3-93.5-26-135.5z"/>
    </g></g>
    <g id="middle-blade" class="lr"><g class="fx">
      <path id="04" d="M721.7 600.8 409 1139.5h622L721.7 600.8z"/>
    </g></g>
    <g id="pie" class="lr"><g class="fx">
        <path d="M831.8 766.3c-34-19.7-72.6-30-111.8-30-40.7 0-79 10.9-111.8 30L720 960l111.8-193.7z"/>
        <path d="M943.6 960c0-82.8-45-155.1-111.8-193.7L720 960h223.6z"/>
        <path d="M608.2 766.3C541.3 804.9 496.4 877.2 496.4 960H720L608.2 766.3z"/>
        <path d="M496.4 960c0 82.8 45 155.1 111.8 193.7L720 960H496.4z"/>
        <path d="M943.6 960H720l111.8 193.7c66.9-38.6 111.8-110.9 111.8-193.7z"/>
        <path d="M608.2 1153.7c32.9 19.1 71.1 30 111.8 30s79-10.9 111.8-30L720 960l-111.8 193.7z"/>
    </g></g>
    <g id="center-bumpy-circle" class="lr"><g class="fx">
      <path d="M916.8 1015.5c1-19.8-5.8-39.2-19.1-54a75.27 75.27 0 0 0-4.4-106.4 75.23 75.23 0 0 0-46.6-19.8c-1.7-41.5-36.7-73.9-78.3-72.2-17.4.7-34.1 7.4-47 19.1-30.5-28.2-78.2-26.3-106.4 4.3a75.37 75.37 0 0 0-19.9 46.7c-41.6 1.7-73.8 36.8-72.1 78.4.7 17.3 7.4 34 19 46.9a75.15 75.15 0 0 0 4.3 106.3l.1.1a75.26 75.26 0 0 0 46.7 19.8c1.1 29.1 19 55 45.8 66.3a75 75 0 0 0 79.5-13.2 75.47 75.47 0 0 0 79.3 14.5c27-10.9 45.2-36.4 46.9-65.5 39-1.5 70.2-32.5 72.2-71.3z"/>
    </g></g>
    <g id="center-diamond" class="lr"><g class="fx">
      <path d="M720 739.1 499.1 960 720 1180.9 940.8 960 720 739.1h0z"/>
    </g></g>
    <g id="center-sun" class="lr"><g class="fx">
        <path d="m830.7 849.3 70 6.4-29.5 63.8 57.4 40.5-57.4 40.5 29.5 63.8-70 6.4-6.4 70-63.8-29.5-40.5 57.4-40.5-57.4-63.8 29.5-6.4-70-70-6.4 29.5-63.8-57.4-40.5 57.4-40.5-29.5-63.8 70-6.4 6.4-70 63.8 29.5 40.5-57.4 40.5 57.4 63.8-29.5z"/>
    </g></g>
    <g id="sphere-1" class="lr"><g class="fx">
        <path d="M501.1 1137.7c16.7.2 30.4-13.1 30.7-29.9.3-16.8-13.1-30.4-29.9-30.7h-.8c-16.7.2-30.1 14-29.9 30.7.2 16.4 13.5 29.7 29.9 29.9z"/>
    </g></g>
    <g id="sphere-2" class="lr"><g class="fx">
        <path d="M905.2 1426c37.6.5 68.5-29.6 69-67.2s-29.6-68.5-67.2-69h-1.8c-37.6.5-67.7 31.4-67.2 69 .5 36.9 30.3 66.7 67.2 67.2z"/>
    </g></g>
    <g id="sphere-3" class="lr"><g class="fx">
        <path d="M240.8 881.5c33.5.4 61-26.3 61.4-59.8.4-33.5-26.3-61-59.8-61.4h-1.6c-33.5.4-60.2 27.9-59.8 61.4.4 32.9 27 59.4 59.8 59.8z"/>
    </g></g>
    <g id="sphere-4" class="lr"><g class="fx">
        <path d="M829.5 453.3c20.2.3 36.8-15.9 37.1-36.1s-15.9-36.8-36.1-37.1h-1c-20.2.3-36.4 16.9-36.1 37.1.2 19.8 16.3 35.9 36.1 36.1z"/>
    </g></g>
    <g id="sphere-5" class="lr"><g class="fx">
        <path d="M1285.4 821c50.2.7 91.5-39.5 92.1-89.7s-39.5-91.5-89.7-92.1h-2.4c-50.2.7-90.4 41.9-89.7 92.1.6 49.2 40.4 89 89.7 89.7z"/>
    </g></g>
    <g id="sphere-6" class="lr"><g class="fx">
        <path d="M209.2 1566.5c50.2.7 91.5-39.5 92.1-89.7.7-50.2-39.5-91.5-89.7-92.1h-2.4c-50.2.7-90.4 41.9-89.7 92.1.7 49.3 40.4 89.1 89.7 89.7z"/>
    </g></g>
    <g id="sphere-7" class="lr"><g class="fx">
        <path d="M146.4 403.3c29.9.4 54.5-23.5 54.9-53.5.4-29.9-23.5-54.5-53.5-54.9h-1.4c-29.9.4-53.9 25-53.5 54.9.4 29.4 24.2 53.1 53.5 53.5z"/>
    </g></g>
    <g id="sphere-8" class="lr"><g class="fx">
        <path d="M1083.2 1757.4c23.6-.1 42.6-19.3 42.5-42.9-.1-23-18.4-41.8-41.4-42.4h-1.1c-23.5.3-42.4 19.7-42.1 43.2.4 23.1 19 41.8 42.1 42.1z"/>
    </g></g>
    <g id="sphere-9" class="lr"><g class="fx">
        <path d="M1159.4 188.3c34.7.5 63.3-27.3 63.7-62 .5-34.7-27.3-63.3-62-63.7h-1.7c-34.7.5-62.5 29-62 63.7a62.7 62.7 0 0 0 62 62z"/>
    </g></g>
    <g id="lens" class="lr"><g class="fx">
        <path d="M720 1940c-132.3 0-260.5-25.9-381.4-77-116.7-49.4-221.5-120-311.5-210s-160.6-194.8-210-311.5c-51.1-120.8-77-249.2-77-381.4s25.9-260.5 77-381.4c49.4-116.6 120-221.5 210-311.4S222 106.7 338.6 57.3C459.5 6.1 587.8-19.8 720-19.8s260.5 25.9 381.4 77c116.7 49.4 221.5 120 311.5 210s160.6 194.8 210 311.5c51.1 120.8 77 249.2 77 381.4s-25.9 260.5-77 381.4c-49.4 116.7-120 221.5-210 311.5s-194.8 160.6-311.5 210c-120.9 51.1-249.2 77-381.4 77zm0-1870.8c-491.3 0-891 399.6-891 890.9s399.7 891 891 891 891-399.7 891-891S1211.2 69.2 720 69.2z"/>
        <path d="M719.7-456C-62.5-456-696.6 178.1-696.6 960.3S-62.5 2376.7 719.7 2376.7s1416.4-634.2 1416.4-1416.4S1502-456 719.7-456zm0 2472.8c-583.5 0-1056.5-473-1056.5-1056.5S136.2-96.2 719.7-96.2s1056.5 473 1056.5 1056.5-473 1056.5-1056.5 1056.5h0z"/>
        <path d="M719.7-141.3C111.3-141.3-381.9 352-381.9 960.3S111.3 2061.9 719.7 2061.9s1101.6-493.2 1101.6-1101.6S1328.1-141.3 719.7-141.3h0zm0 2137.8c-572.3 0-1036.2-463.9-1036.2-1036.2S147.5-75.8 719.7-75.8 1755.9 388.1 1755.9 960.3 1292 1996.5 719.7 1996.5z"/>
    </g></g>
    <g id="eight-boxes" class="lr"><g class="fx">
      <path d="M523 111.3h394.1l136.3-593.6H386.6z"/>
      <path d="m522.9 1808.7-136.3 593.6h666.8L917 1808.7z"/>
      <path d="m1568.7 1157.1 593.6 136.3V626.6L1568.7 763z"/>
      <path d="m-128.7 762.9-593.6-136.3v666.8l593.6-136.4z"/>
      <path d="m1180.7 1699.5 323.4 516.1 471.5-471.5-516.2-323.3z"/>
      <path d="m-535.6 175.9 516.2 323.3 278.7-278.7-323.4-516.1z"/>
      <path d="m-535.6 1744.1 471.5 471.5 323.3-516.2-278.7-278.7z"/>
      <path d="m1975.6 175.9-471.5-471.5-323.3 516.2 278.7 278.7z"/>
    </g></g>
    <g id="four-origins" class="lr"><g class="fx">
      <path d="M720 431.5 106.5-181.9h1226.9L720 431.5z"/>
      <path d="M1248.5 960 1862 346.5v1226.9L1248.5 960z"/>
      <path d="m720 1488.5 613.5 613.5h-1227L720 1488.5z"/>
      <path d="M191.5 960-422 1573.4V346.5L191.5 960z"/>
    </g></g>
    <g id="center-circle-1" class="lr"><g class="fx">
      <path d="M720 1139.7c99.2 0 179.6-80.4 179.6-179.6S819.2 780.5 720 780.5s-179.6 80.4-179.6 179.6 80.4 179.6 179.6 179.6h0z"/>
    </g></g>
    <g id="middle-shards" class="lr"><g class="fx">
        <path d="m449.3 689.4 24.6 102.3 167.6 89.8L551.7 714z"/>
        <path d="m990.7 1230.7-24.6-102.3-167.6-89.8 89.8 167.5z"/>
        <path d="M990.7 689.4 888.3 714l-89.8 167.5 167.6-89.8z"/>
        <path d="m449.3 1230.7 102.4-24.6 89.8-167.5-167.6 89.8z"/>
    </g></g>
    <g id="four-petal" class="lr"><g class="fx">
      <path d="M838.2 868c-10.3.1-20.4 1.5-30.3 4.2 2.6-10 4.1-20.1 4.2-30.4 0-57-27-58.9-92-58.9s-92.1 1.8-92.1 58.9c.1 10.3 1.5 20.4 4.2 30.4-10-2.6-20.1-4.1-30.4-4.2-57 0-58.9 27.1-58.9 92s1.8 92 58.9 92c10.3-.1 20.4-1.5 30.4-4.2-2.6 10-4.1 20.1-4.2 30.4 0 57 27.1 58.9 92 58.9s92-1.8 92-58.9c-.1-10.3-1.5-20.4-4.2-30.4 10 2.6 20.1 4.1 30.4 4.2 57 0 58.9-27.1 58.9-92s-1.9-92-58.9-92z"/>
    </g></g>
    <g id="center-circle-2" class="lr"><g class="fx">
      <circle cx="720.2" cy="960.3" r="134.9"/>
    </g></g>
    <g id="center-challice" class="lr"><g class="fx">
      <path d="m720 1139.7 155.5-269.3h-311L720 1139.7z"/>
    </g></g>
    <g id="center-box" class="lr"><g class="fx">
      <path d="M809.8 870.4H630.2v179.5h179.5l.1-179.5h0z"/>
    </g></g>
    <g id="center-core" class="lr"><g class="fx">
      <path d="M720 1049.8c49.6 0 89.8-40.2 89.8-89.8s-40.2-89.8-89.8-89.8h0c-49.6 0-89.8 40.2-89.8 89.8s40.2 89.8 89.8 89.8z"/>
      <text id="char" transform="translate(723 1000)" text-anchor="middle"></text>
    </g></g>
    <g id="slot" class="lr"><g class="fx">
      <path d="M731.9 1048.7V871.3h-23.8v177.4h23.8z"/>
    </g></g>
    <g id="signature">
      <path class="outline" d="M1508 1822c14.2 0 26.3-29.5 12.3-29.5-14.4 0-2.3 29.5 11.9 29.5s26.3-30.6 12.3-30.6c-14.4 0-2.3 30.6 11.9 30.6s26.3-29.5 12.3-29.5c-14.4 0-2.3 29.5 11.9 29.5"/>
      <path class="hid" d="M1504.6 1785.2h80.3v43.9h-80.3z"/>
    </g>
  </g>
  <path class="outline" d="M70.6 70.1h1299.9V1850H70.6z"/>
  <path class="outline square" d="M1609.9 1849.9V70.1H-169.9V1850l1779.8-.1z"/>
  <a><text id="seedNumber" transform="matrix(1 0 0 1 720 1896)" text-anchor="middle">0</text></a>
</g>
<script type="text/javascript">//<![CDATA[
const artwork=document.getElementById('seedsArtwork');
const textElement=document.getElementById('seedNumber');
const sig=artwork.getElementById('signature');
artwork.classList.add('js');
artwork.classList.add('reveal');
artwork.classList.add('depth');

artwork.setAttribute("width","100%");
artwork.setAttribute("height","100%");
artwork.setAttribute('tabindex','0');
artwork.focus();

let holdThreshold=2200;
let isSpinClassActive=false;
let holdTimer;

// SEED RENDERER
function updateSVGWithSeed(seed){
  const lrElements=Array.from(document.querySelectorAll('.lr'));
  lrElements.forEach(element=>{element.classList.remove('on')});

  function setLayersVisibility(seed){
    for(let i=0;i<lrElements.length;i++){
      const isVisible=(seed & BigInt(1)<<BigInt(i))!==0n;
      lrElements[i].classList.toggle('on',isVisible);
    }
  }
  setLayersVisibility(seed);
  textElement.textContent=seed.toString();
}

function mutationCallback(mutationsList,observer){
  for(const mutation of mutationsList){
    if(mutation.type==='attributes'&& mutation.attributeName==='data-seed'){
      const newSeedValue=BigInt(mutation.target.getAttribute('data-seed'));
      updateSVGWithSeed(newSeedValue);
    }
  }
}

// SEED ATTRIBUTE OBSERVER
const mutationObserverOptions={attributes:true,};
var seed;

// Create a new Mutation Observer
const mutationObserver=new MutationObserver(mutationCallback);

// Observe changes to the data-seed attribute
mutationObserver.observe(artwork,mutationObserverOptions);

// Initialize the SVG with the initial seed value from the data-seed attribute
const initialSeed=BigInt(artwork.getAttribute('data-seed'));
updateSVGWithSeed(initialSeed);

// Event listener to receive seed number from the parent document
window.addEventListener('message',function(event){
  if(event.data && typeof event.data.seed==='bigint'){
    updateSVGWithSeed(event.data.seed);
  }
  seed=artwork.getAttribute('data-seed');
});

//]]></script>
</svg>